<?xml version="1.0" standalone="no"?>
<!DOCTYPE svg PUBLIC "-//W3C//DTD SVG 1.1//EN" "http://www.w3.org/Graphics/SVG/1.1/DTD/svg11.dtd">
<svg xmlns="http://www.w3.org/2000/svg">
<defs >
<font id="Cormorant" horiz-adv-x="526" ><font-face
    font-family="Cormorant"
    units-per-em="1000"
    panose-1="0 0 5 0 0 0 0 0 0 0"
    ascent="924"
    descent="-287"
    alphabetic="0" />
<glyph unicode=" " glyph-name="space" horiz-adv-x="234" />
<glyph unicode="!" glyph-name="exclam" horiz-adv-x="247" d="M77 624T92 626T124 629Q141 629 156 627T170 620Q153 534 145 436T129 189Q129 186 122 186Q114 186 114 189Q109 325 102 429T78 620Q77 624 92 626ZM102 -11T91 0T79 33Q79 52 90 63T123 74Q143
74 154 63T165 33Q165 12 154 1T123 -11Q102 -11 91 0Z" />
<glyph unicode="&quot;" glyph-name="quotedbl" horiz-adv-x="283" d="M43 609Q42 620 67 630T111 640Q120 640 119 636L67 366Q66 364 61 363T55 365L43 609ZM186 609Q185 620 210 630T254 640Q263 640 262 636L210 366Q209 364 204 363T198 365L186 609Z" />
<glyph unicode="#" glyph-name="numbersign" d="M465 315T466 309T468 295Q468 288 467 282T463 275H391L362 116H428Q430 116 431 110T433 96Q433 89 432 83T428 76H355L328 -79Q328 -82 319 -82Q310 -82 300 -80T291 -75L318 76H168L140 -79Q140 -82 131 -82Q123
-82 113 -80T104 -75L131 76H63Q61 76 60 82T58 97Q58 104 59 110T62 116H138L166 275H98Q96 275 95 281T93 296Q93 303 94 309T97 315H173L202 482Q202 487 221 483T239 475L210 315H360L389 482Q389 487 408 483T426 475L398 315H463Q465 315 466 309ZM353 275H203L175
116H325L353 275Z" />
<glyph unicode="$" glyph-name="dollar" horiz-adv-x="411" d="M366 71T328 34T225 -11V-102Q225 -109 214 -109Q203 -109 203 -102V-12H198Q129 -12 78 23Q71 27 69 42L59 140Q58 144 63 145T71 143Q84 90 120 51T203 5V216L189 223Q149 245 126 261T86 302T70
359Q70 411 108 442T203 479V561Q203 565 206 567T214 569Q219 569 222 567T225 561V480Q273 478 320 457Q329 453 331 450T335 440L342 353Q342 349 337 348T330 351Q323 386 294 420T225 463V270L242 261Q283 239 307 223T349 182T366 123Q366 71 328 34ZM123
351T144 327T203 281V465Q164 465 144 443T123 385Q123 351 144 327ZM260 6T284 26T309 89Q309 128 287 154T225 204V4Q260 6 284 26Z" />
<glyph unicode="%" glyph-name="percent" horiz-adv-x="574" d="M97 303T62 340T27 433Q27 486 62 523T150 560Q202 560 236 523T270 430Q270 376 236 340T150 303Q97 303 62 340ZM106 -6T104 -6Q99 -6 90 -1T82 7L453 551Q454 552 456 552Q461 552 470 546T477
537L106 -5Q106 -6 104 -6ZM190 315T201 342T212 423Q212 485 195 517T144 549Q110 549 98 519T85 436Q85 315 157 315Q190 315 201 342ZM374 -5T339 32T304 125Q304 178 339 215T427 253Q480 253 513 216T547 123Q547 69 513 32T427 -5Q374 -5 339 32ZM467 7T478
34T489 116Q489 177 472 209T421 241Q387 241 375 212T363 129Q363 7 434 7Q467 7 478 34Z" />
<glyph unicode="&amp;" glyph-name="ampersand" horiz-adv-x="697" d="M701 11T701 6T697 0H589Q544 0 452 71Q371 -12 250 -12Q188 -12 147 9T85 64T65 138Q65 195 100 237T202 328Q184 355 173 378Q145 437 145 487Q145 531 165 567T223 624T310 646Q358 646
392 623T427 547Q427 508 408 477T360 423T283 367Q276 363 262 353Q332 239 476 131Q510 193 510 265Q510 301 496 319T439 337Q436 337 436 343T439 349L648 350Q652 350 652 344T648 338Q614 338 597 332T573 314T559 279Q533 185 490 120Q550 76 604 48T697
12Q701 11 701 6ZM202 451T254 366Q308 406 337 444T367 531Q367 576 344 600T280 625Q202 625 202 530Q202 451 254 366ZM379 18T439 81L421 96Q361 143 306 201T211 316Q172 284 150 250T128 172Q128 130 149 95T209 39T295 18Q379 18 439 81Z" />
<glyph unicode="&apos;" glyph-name="quotesingle" horiz-adv-x="140" d="M43 609Q42 620 67 630T111 640Q120 640 119 636L67 366Q66 364 61 363T55 365L43 609Z" />
<glyph unicode="(" glyph-name="parenleft" horiz-adv-x="309" d="M65 446T120 559T274 725Q276 726 278 724T278 719Q204 648 169 545T134 304Q134 166 169 63T278 -111Q280 -112 278 -115T274 -117Q175 -63 120 49T65 304Q65 446 120 559Z" />
<glyph unicode=")" glyph-name="parenright" horiz-adv-x="309" d="M244 162T189 49T35 -117Q33 -118 31 -116T31 -111Q105 -40 140 63T175 304Q175 442 140 545T31 719Q29 720 31 723T35 725Q134 671 189 559T244 304Q244 162 189 49Z" />
<glyph unicode="*" glyph-name="asterisk" horiz-adv-x="448" d="M228 657Q228 666 247 675T287 687T305 685L236 529Q235 526 231 526T226 529L228 657ZM82 552Q70 556 70 594Q70 611 73 624T79 635L207 520Q209 519 208 515T204 511L82 552ZM251 503Q249 503
248 507T248 513L372 551Q380 553 394 537T418 503T422 486L251 503ZM134 378T123 378Q111 378 94 383T66 396T58 405L206 491L208 492Q210 492 212 489T214 485L137 383Q134 378 123 378ZM233 481V482Q233 484 236 487T241 488L315 382Q320 375 310 356T285 322T269
313L233 481Z" />
<glyph unicode="+" glyph-name="plus" horiz-adv-x="398" d="M366 209T367 203T369 190Q369 183 368 177T364 170H219V25Q219 23 212 22T196 20Q179 20 179 23V170H34Q32 170 31 176T29 191Q29 198 30 203T33 209H179V354Q179 356 185 357T199 359Q206 359 212
358T219 354V209H364Q366 209 367 203Z" />
<glyph unicode="," glyph-name="comma" horiz-adv-x="222" d="M132 71T149 49T166 -16Q166 -56 148 -90T95 -159Q94 -160 92 -160Q89 -160 87 -157T87 -152Q136 -102 136 -34Q136 -6 126 7Q117 -8 95 -8Q77 -8 67 2T56 31Q56 71 102 71Q132 71 149 49Z" />
<glyph unicode="-" glyph-name="hyphen" horiz-adv-x="323" d="M30 165T29 173T27 191Q27 210 30 211L291 257Q293 258 294 251T296 236Q296 228 295 221T291 213L32 166Q30 165 29 173Z" />
<glyph unicode="." glyph-name="period" horiz-adv-x="198" d="M79 -11T68 0T56 33Q56 52 67 63T100 74Q120 74 131 63T142 33Q142 12 131 1T100 -11Q79 -11 68 0Z" />
<glyph unicode="/" glyph-name="slash" horiz-adv-x="342" d="M63 -167T44 -162T26 -152L278 730Q280 734 299 728T316 718L64 -163Q63 -167 44 -162Z" />
<glyph unicode="0" glyph-name="zero" horiz-adv-x="477" d="M181 -13T134 14T61 88T35 196Q35 255 61 301T134 373T241 399Q299 399 345 373T416 299T442 193Q442 134 416 87T344 14T240 -13Q181 -13 134 14ZM311 1T341 49T372 181Q372 281 332 333T231 385Q171
385 138 335T104 204Q104 115 144 58T251 1Q311 1 341 49Z" />
<glyph unicode="1" glyph-name="one" horiz-adv-x="332" d="M52 0T52 6T55 12Q97 12 117 17T145 37T153 81V267Q153 305 148 320T127 336Q109 336 54 311H53Q49 311 47 315T49 322L200 395Q201 396 203 396Q206 396 208 394T210 388V81Q210 50 217 36T244 17T308
12Q310 12 310 6T308 0Q274 0 255 1L181 2L109 1Q89 0 55 0Q52 0 52 6Z" />
<glyph unicode="2" glyph-name="two" horiz-adv-x="402" d="M125 86T173 132T242 214T263 285Q263 326 239 351T175 377Q96 377 61 254Q61 252 57 252Q54 252 51 253T49 256L88 408Q88 410 92 410Q95 410 97 409T99 406Q98 402 98 395Q98 379 113 379Q121 379
144 386Q185 399 216 399Q267 399 296 372T326 300Q326 265 304 230T238 156T116 56Q112 53 114 51T120 49Q230 49 273 52T335 68T362 114Q363 117 368 117T373 113L358 11Q358 7 356 4T349 0H44Q39 0 36 5T37 15Q125 86 173 132Z" />
<glyph unicode="3" glyph-name="three" horiz-adv-x="389" d="M280 124T314 84T349 -9Q349 -58 317 -109T220 -205T58 -275Q55 -276 53 -271T54 -264Q174 -227 225 -159T277 -20Q277 34 249 71T164 108Q136 108 116 102Q112 101 111 107T112 114Q190 134 222 170T255
268Q255 319 234 348T168 377Q124 377 93 348T44 258Q44 257 40 257Q32 257 33 261L70 407Q70 409 74 409Q77 409 80 408T82 405Q80 397 80 394Q80 377 97 377Q106 377 127 384Q168 399 201 399Q257 399 288 366T319 285Q319 236 291 194T214 131Q280 124 314 84Z"
/>
<glyph unicode="4" glyph-name="four" horiz-adv-x="451" d="M415 44T416 38T418 23Q418 15 417 8T413 1Q383 3 329 5V-153Q329 -164 321 -167L279 -188Q273 -190 273 -190Q270 -190 270 -182V6Q207 8 29 8Q24 8 22 12T22 20L314 396Q316 398 320 398Q323 398
326 397T329 392V42Q353 42 413 44Q415 44 416 38ZM164 38T270 40V297L73 45Q71 42 72 40T78 38Q164 38 270 40Z" />
<glyph unicode="5" glyph-name="five" horiz-adv-x="409" d="M106 325T104 311L84 196Q222 195 286 145T351 9Q351 -48 322 -94T232 -184T68 -275H67Q63 -275 61 -271T62 -264Q185 -203 235 -141T285 -8Q285 75 229 121T68 167Q63 167 60 170T58 179L90 357Q91
364 93 365T103 368Q229 383 272 389T327 401T345 423Q346 426 351 426T356 421L336 347Q332 336 327 333T308 330L119 325Q106 325 104 311Z" />
<glyph unicode="6" glyph-name="six" horiz-adv-x="465" d="M366 283T398 247T430 159Q430 112 403 73T331 10T230 -13Q145 -13 96 45T47 208Q47 301 89 391T212 552T400 661Q404 662 406 657T405 650Q310 607 244 538T145 387T111 225Q111 164 128 114T179 35T258
6Q307 6 336 40T366 133Q366 187 341 221T264 255Q238 255 216 244T165 208L163 207Q160 207 157 210T154 215Q210 283 299 283Q366 283 398 247Z" />
<glyph unicode="7" glyph-name="seven" horiz-adv-x="429" d="M160 -227T155 -232T142 -243L91 -275Q89 -276 86 -273T84 -268L351 328Q354 335 346 335Q197 335 140 331T64 315T35 268Q35 265 30 265Q27 265 25 266T23 270L58 413Q59 415 65 415T70 412Q69 408
69 402Q69 392 78 389T117 386H382Q386 386 389 382T391 373L163 -218Q160 -227 155 -232Z" />
<glyph unicode="8" glyph-name="eight" horiz-adv-x="489" d="M347 317T379 295T432 239T454 162Q454 113 425 73T348 10T242 -13Q185 -13 141 9T72 69T47 149Q47 208 86 260T184 343Q145 367 124 393T103 454Q103 493 127 520T187 560T259 574Q299 574 329 559T376
519T393 469Q393 437 368 405T297 344Q347 317 379 295ZM204 558T181 538T158 484Q158 442 190 413T286 350Q311 374 323 399T336 453Q336 500 309 529T238 558Q204 558 181 538ZM325 5T360 39T396 130Q396 176 374 209T321 263T236 313L198 334Q157 308 135 267T112
176Q112 131 132 92T188 29T270 5Q325 5 360 39Z" />
<glyph unicode="9" glyph-name="nine" horiz-adv-x="465" d="M105 109T70 150T35 244Q35 289 59 324T124 379T217 399Q310 399 364 335T419 165Q419 74 377 -14T254 -172T65 -275Q62 -276 60 -271T61 -264Q155 -226 221 -158T320 -10T354 146Q354 199 339 253T289
344T201 381Q154 381 127 350T100 263Q100 208 128 172T209 136Q234 136 254 144T300 174Q301 175 303 175Q306 175 309 172T311 167Q261 109 177 109Q105 109 70 150Z" />
<glyph unicode=":" glyph-name="colon" horiz-adv-x="198" d="M79 -11T68 0T56 33Q56 52 67 63T100 74Q120 74 131 63T142 33Q142 12 131 1T100 -11Q79 -11 68 0ZM79 270T68 281T56 314Q56 333 67 344T100 355Q120 355 131 344T142 314Q142 293 131 282T100 270Q79
270 68 281Z" />
<glyph unicode=";" glyph-name="semicolon" horiz-adv-x="224" d="M134 71T151 49T168 -16Q168 -56 150 -90T97 -159Q96 -160 94 -160Q91 -160 89 -157T89 -152Q138 -102 138 -34Q138 -6 128 7Q119 -8 97 -8Q79 -8 69 2T58 31Q58 71 104 71Q134 71 151 49ZM81
270T70 281T58 314Q58 333 69 344T102 355Q122 355 133 344T144 314Q144 293 133 282T102 270Q81 270 70 281Z" />
<glyph unicode="&lt;" glyph-name="less" horiz-adv-x="407" d="M377 63T377 42Q377 22 370 25L36 173Q31 176 31 190Q31 205 36 207L370 354Q373 356 375 351T377 338Q377 318 370 314L81 190L370 66Q377 63 377 42Z" />
<glyph unicode="=" glyph-name="equal" horiz-adv-x="468" d="M32 240T31 246T29 261Q29 268 30 273T33 279H434Q436 279 437 273T439 260Q439 253 438 247T434 240H34Q32 240 31 246ZM32 100T31 106T29 121Q29 128 30 133T33 139H434Q436 139 437 133T439 120Q439
113 438 107T434 100H34Q32 100 31 106Z" />
<glyph unicode="&gt;" glyph-name="greater" horiz-adv-x="407" d="M376 204T376 189Q376 175 371 172L37 25Q34 24 32 28T30 41Q30 49 32 56T37 65L326 189L37 313Q34 314 32 321T30 337Q30 345 32 350T37 354L371 206Q376 204 376 189Z" />
<glyph unicode="?" glyph-name="question" horiz-adv-x="330" d="M135 611T127 600T115 565Q112 545 104 533T77 521Q61 521 52 531T43 555Q43 584 78 604T162 625Q220 625 259 594T298 506Q298 475 287 452T263 413T221 372Q187 338 173 310T158 248Q158 226
164 193Q165 191 159 190T152 191Q141 217 134 252T126 310Q126 341 138 361T176 407Q203 434 216 457T230 517Q230 559 210 585T158 611Q135 611 127 600ZM135 -11T124 0T112 33Q112 52 123 63T156 74Q176 74 187 63T198 33Q198 12 187 1T156 -11Q135 -11 124
0Z" />
<glyph unicode="@" glyph-name="at" horiz-adv-x="719" d="M412 51T412 111Q412 129 414 138L424 188Q389 125 347 87T266 49Q243 49 229 64T214 111Q214 123 215 129Q223 183 256 235T334 322T418 356Q432 356 444 351T465 335Q480 347 483 363Q484 364 489 364Q503
364 501 361L460 137Q456 115 456 106Q456 71 493 71Q521 71 548 90T594 147T612 236Q612 300 580 353T491 438T365 470Q290 470 234 433T147 334T117 198Q117 119 151 59T249 -34T393 -67Q440 -67 476 -57T559 -20H560Q563 -20 565 -23T565 -28Q480 -97 361 -97Q280
-97 215 -65T112 29T74 174Q74 265 119 338T240 452T399 494Q472 494 529 463T617 380T648 265Q648 209 623 160T557 81T467 51Q412 51 412 111ZM319 88T349 115T405 185T439 270Q440 275 440 285Q440 306 430 319T399 332Q374 332 346 309T297 246T268 162Q265
143 265 128Q265 88 293 88Q319 88 349 115Z" />
<glyph unicode="A" glyph-name="A" horiz-adv-x="702" d="M703 12T703 6T698 0Q678 0 640 2Q600 4 583 4Q561 4 527 2Q493 0 477 0Q473 0 473 6T477 12Q514 12 531 19T548 43Q548 57 535 86L419 331H231L145 127Q131 93 131 71Q131 12 229 12Q234 12 234 6T229
0Q212 0 178 2Q140 4 111 4Q85 4 51 2Q21 0 1 0Q-4 0 -4 6T1 12Q29 12 48 22T85 59T124 136L335 634Q336 636 341 636T348 634L584 137Q608 86 625 60T659 23T698 12Q703 12 703 6ZM409 352L320 541L240 352H409Z" />
<glyph unicode="B" glyph-name="B" horiz-adv-x="558" d="M412 346T460 300T508 184Q508 131 482 88T411 21T309 -4Q276 -4 238 -1Q224 0 205 1T162 2L94 1Q76 0 44 0Q41 0 41 6T44 12Q81 12 99 17T123 36T130 81V544Q130 574 124 588T100 607T45 613Q42 613 42
619T45 625L94 624Q136 622 162 622Q180 622 195 623T223 625Q253 628 280 628Q364 628 405 592T447 496Q447 448 416 411T332 352Q412 346 460 300ZM232 613T220 609T201 590T195 542V352L240 351Q313 351 347 388T382 488Q382 545 352 579T258 613Q232 613 220
609ZM438 14T438 160Q438 236 394 282T271 330Q247 331 195 329V81Q195 55 202 41T231 21T294 14Q438 14 438 160Z" />
<glyph unicode="C" glyph-name="C" horiz-adv-x="669" d="M463 636T512 627T590 601Q599 596 601 593T604 578L616 465Q616 463 611 462T605 464Q583 541 523 577T376 614Q300 614 243 581T155 486T124 345Q124 252 162 173T266 48T408 2Q480 2 533 41T614 163Q614
165 619 165Q626 165 626 162L611 49Q609 37 607 33T596 26Q506 -12 406 -12Q286 -12 206 36T87 160T49 318Q49 410 100 482T235 595T415 636Q463 636 512 627Z" />
<glyph unicode="D" glyph-name="D" horiz-adv-x="691" d="M273 -4T235 -1Q220 0 200 1T153 2L85 1Q67 0 35 0Q33 0 33 6T35 12Q73 12 91 17T115 36T122 81V544Q122 574 116 588T92 607T36 613Q34 613 34 619T36 625L86 624Q128 622 153 622Q191 622 228 625Q272
627 289 627Q393 627 473 587T598 478T642 323Q642 226 597 152T473 37T303 -4Q273 -4 235 -1ZM373 11T434 44T531 143T566 301Q566 388 533 459T440 571T298 612Q254 612 231 607T197 587T186 542V92Q186 48 208 30T293 11Q373 11 434 44Z" />
<glyph unicode="E" glyph-name="E" horiz-adv-x="537" d="M475 151T480 151Q482 151 484 150T487 147Q478 84 478 15Q478 7 475 4T463 0H44Q41 0 41 6T44 12Q82 12 99 17T123 36T129 81V544Q129 574 123 588T100 607T44 613Q41 613 41 619T44 625H445Q454 625
454 616L457 492Q457 490 451 490T445 492Q441 545 412 574T335 604H274Q240 604 223 599T200 581T194 539V335H316Q364 335 384 351T405 406Q405 408 411 408T417 406L416 325Q416 295 417 280L418 233Q418 230 412 230T406 233Q406 277 385 296T313 315H194V85Q194
58 200 45T222 26T272 21H352Q399 21 431 55T475 149Q475 151 480 151Z" />
<glyph unicode="F" glyph-name="F" horiz-adv-x="510" d="M457 492Q457 490 451 490T445 492Q441 545 412 574T335 604H274Q241 604 224 599T201 581T194 543V324H295Q348 324 371 340T394 394Q394 397 399 397T405 394L404 313Q404 284 405 269L406 221Q406 218
401 218T395 221Q395 265 371 284T292 303H194V85Q194 53 202 39T236 18T315 12Q317 12 317 6T315 0Q274 0 251 1L161 2L93 1Q75 0 42 0Q40 0 40 6T42 12Q80 12 98 17T122 36T129 81V544Q129 574 123 588T100 607T44 613Q41 613 41 619T44 625H445Q454 625 454
616L457 492Z" />
<glyph unicode="G" glyph-name="G" horiz-adv-x="715" d="M296 -12T216 30T92 144T49 306Q49 402 98 477T234 594T430 636Q478 636 523 627T596 600Q603 596 605 593T607 585T608 578L620 465Q620 463 615 462T608 464Q586 536 529 575T387 614Q261 614 192 541T123
341Q123 244 162 168T272 48T429 5Q480 5 508 14T549 49T562 126Q562 178 556 198T527 226T449 233Q443 233 443 241Q443 244 444 246T448 249Q526 244 574 244Q621 244 673 247Q677 247 677 240T673 233Q648 234 638 227T625 196T622 116Q622 71 625 52T629 28Q629
22 627 20T618 16Q499 -12 405 -12Q296 -12 216 30Z" />
<glyph unicode="H" glyph-name="H" horiz-adv-x="759" d="M725 12T725 6T723 0Q691 0 673 1L603 2L531 1Q513 0 483 0Q480 0 480 6T483 12Q522 12 540 17T564 36T571 81V315H187V81Q187 51 193 37T218 17T275 12Q278 12 278 6T275 0Q244 0 226 1L154 2L85 1Q66
0 35 0Q33 0 33 6T35 12Q73 12 91 17T116 36T123 81V544Q123 574 117 588T92 607T36 613Q34 613 34 619T36 625L86 624Q128 622 154 622Q183 622 227 624L275 625Q278 625 278 619T275 613Q237 613 219 607T194 587T187 542V335H571V542Q571 572 565 586T540 607T483
613Q480 613 480 619T483 625L531 624Q575 622 603 622Q629 622 673 624L723 625Q725 625 725 619T723 613Q685 613 667 608T642 588T635 544V81Q635 51 641 37T666 17T723 12Q725 12 725 6Z" />
<glyph unicode="I" glyph-name="I" horiz-adv-x="332" d="M199 50T205 36T228 17T284 12Q287 12 287 6T284 0Q254 0 236 1L165 2L97 1Q79 0 47 0Q44 0 44 6T47 12Q85 12 102 17T126 36T133 81V544Q133 574 127 588T103 607T47 613Q44 613 44 619T47 625L97 624Q139
622 165 622Q195 622 237 624L284 625Q287 625 287 619T284 613Q247 613 229 607T205 587T199 542V81Q199 50 205 36Z" />
<glyph unicode="J" glyph-name="J" horiz-adv-x="322" d="M282 625T282 619T280 613Q247 613 232 607T212 587T206 542V-28Q206 -127 160 -185T27 -244Q-7 -244 -26 -233T-46 -201Q-46 -186 -37 -177T-12 -167Q5 -167 14 -174T33 -197Q42 -211 49 -217T70 -224Q105
-224 122 -183T140 -49V544Q140 574 133 588T106 607T42 613Q40 613 40 619T42 625L99 624Q145 622 172 622Q198 622 236 624L280 625Q282 625 282 619Z" />
<glyph unicode="K" glyph-name="K" horiz-adv-x="650" d="M644 12T644 6T641 0H529Q521 0 501 0T443 50T372 145L219 338L186 306V81Q186 50 192 36T215 17T271 12Q274 12 274 6T271 0Q241 0 223 1L153 2L85 1Q67 0 35 0Q33 0 33 6T35 12Q73 12 91 17T115 36T122
81V544Q122 574 116 588T92 607T36 613Q34 613 34 619T36 625L86 624Q128 622 153 622Q182 622 224 624L271 625Q274 625 274 619T271 613Q234 613 217 607T193 587T186 542V330L400 544Q433 577 433 593Q433 613 374 613Q372 613 372 619T374 625L417 624Q457
622 490 622Q523 622 559 624L597 625Q599 625 599 619T597 613Q555 613 509 595T423 538L265 383L409 198Q482 104 520 65T580 19T641 12Q644 12 644 6Z" />
<glyph unicode="L" glyph-name="L" horiz-adv-x="533" d="M185 85Q185 57 191 44T213 26T266 21H374Q431 21 465 56T510 154Q510 156 514 156Q517 156 519 155T522 152Q512 78 512 15Q512 7 509 4T497 0H35Q33 0 33 6T35 12Q73 12 90 17T114 36T120 81V544Q120
574 114 588T91 607T35 613Q33 613 33 619T35 625L84 624Q126 622 152 622Q181 622 223 624L270 625Q273 625 273 619T270 613Q233 613 215 608T191 588T185 543V85Z" />
<glyph unicode="M" glyph-name="M" horiz-adv-x="836" d="M815 12T815 6T812 0Q780 0 762 1L694 2L630 1Q614 0 585 0Q583 0 583 6T585 12Q619 12 635 17T657 37T661 81L643 535L415 7Q413 3 407 3Q402 3 398 7L152 532L143 109Q142 56 161 34T228 12Q230 12 230
6T228 0Q200 0 185 1L131 2L79 1Q65 0 39 0Q36 0 36 6T39 12Q81 12 100 34T120 109L128 573Q98 613 46 613Q44 613 44 619T46 625L83 624Q93 623 110 623Q129 623 142 624T161 625Q174 625 182 616T207 573L431 103L648 600Q659 625 678 625Q683 625 692 624T717
623L765 624Q776 625 798 625Q801 625 801 619T798 613Q748 613 727 599T706 544L726 81Q727 50 733 36T757 17T812 12Q815 12 815 6Z" />
<glyph unicode="N" glyph-name="N" horiz-adv-x="727" d="M707 625T707 619T704 613Q662 613 643 590T624 516V-11Q624 -14 620 -15T613 -14L152 543L144 553V109Q144 57 162 35T221 12Q224 12 224 6T221 0Q196 0 183 1L133 2L82 1Q68 0 41 0Q38 0 38 6T41 12Q84
12 102 34T120 109V577Q99 597 80 605T41 613Q38 613 38 619T41 625L78 624Q89 623 111 623Q133 623 147 624T169 625Q176 625 180 622T192 606Q203 588 215 573L601 101V516Q601 567 584 590T525 613Q523 613 523 619T525 625L564 624Q594 622 613 622Q631 622
663 624L704 625Q707 625 707 619Z" />
<glyph unicode="O" glyph-name="O" horiz-adv-x="766" d="M273 -12T201 31T89 149T49 312Q49 415 101 488T234 599T401 636Q496 636 568 592T678 474T717 319Q717 228 669 152T541 32T366 -12Q273 -12 201 31ZM469 9T523 42T609 139T641 291Q641 384 607 457T508
572T360 613Q249 613 187 542T125 347Q125 253 160 176T258 54T402 9Q469 9 523 42Z" />
<glyph unicode="P" glyph-name="P" horiz-adv-x="543" d="M192 53T200 39T233 18T311 12Q314 12 314 6T311 0Q270 0 247 1L160 2L93 1Q74 0 42 0Q40 0 40 6T42 12Q80 12 97 17T121 36T128 81V544Q128 574 122 588T98 607T42 613Q40 613 40 619T42 625L92 624Q134
622 159 622Q182 622 215 625Q293 628 299 628Q390 628 445 587T501 462Q501 396 469 351T386 284T281 262Q251 262 232 267Q229 267 229 272Q229 275 230 278T234 280Q250 276 270 276Q336 276 381 319T427 444Q427 523 384 568T274 613Q237 613 221 609T199 591T192
542V85Q192 53 200 39Z" />
<glyph unicode="Q" glyph-name="Q" horiz-adv-x="766" d="M748 -159T749 -164T749 -171Q699 -183 664 -183Q594 -183 518 -138T387 -11Q380 -12 366 -12Q273 -12 201 31T89 149T49 312Q49 415 101 488T234 599T401 636Q496 636 568 592T678 474T717 319Q717 245
685 180T595 68T466 2Q508 -70 577 -117T709 -164Q727 -164 745 -160Q748 -159 749 -164ZM125 253T160 176T258 54T402 9Q469 9 523 42T609 139T641 291Q641 384 607 457T508 572T360 613Q249 613 187 542T125 347Q125 253 160 176Z" />
<glyph unicode="R" glyph-name="R" horiz-adv-x="673" d="M685 12T685 6T682 0H554Q529 0 461 85T294 323Q267 317 240 317Q221 317 195 319V81Q195 50 201 36T224 17T280 12Q283 12 283 6T280 0Q249 0 232 1L162 2L94 1Q76 0 44 0Q41 0 41 6T44 12Q82 12 99 17T123
36T130 81V544Q130 574 124 588T101 607T45 613Q42 613 42 619T45 625L94 624Q136 622 162 622Q180 622 196 623T224 625Q256 628 282 628Q364 628 407 595T451 502Q451 454 423 412T349 345Q435 218 492 147T595 44T682 12Q685 12 685 6ZM222 340T254 340Q323
340 353 369T383 468Q383 614 260 614Q233 614 220 610T201 590T195 542V343Q222 340 254 340Z" />
<glyph unicode="S" glyph-name="S" horiz-adv-x="491" d="M145 469T164 440T210 392T286 343Q339 311 367 290T416 237T437 159Q437 111 413 72T343 11T231 -12Q157 -12 90 23Q85 26 84 30T81 42L68 178Q67 182 72 183T80 180Q95 108 138 56T254 4Q304 4 338 31T373
119Q373 164 354 196T306 250T228 302Q180 330 152 351T105 405T86 480Q86 530 112 565T181 618T272 636Q334 636 389 612Q405 606 405 595L411 480Q411 476 406 476T399 480Q396 511 380 543T333 598T256 621Q200 621 173 589T145 508Q145 469 164 440Z" />
<glyph unicode="T" glyph-name="T" horiz-adv-x="634" d="M126 607T95 575T50 466Q49 464 44 464T38 467Q42 494 47 554T52 647Q52 652 58 652T64 647Q64 625 117 625Q202 622 318 622Q378 622 444 624L511 625Q547 625 564 630T587 650Q588 654 593 654T598 650Q595
622 592 563T589 467Q589 464 584 464T577 467Q574 544 545 575T449 607Q404 607 385 603T359 586T352 542V81Q352 50 359 36T386 17T449 12Q452 12 452 6T449 0Q415 0 396 1L318 2L243 1Q223 0 188 0Q186 0 186 6T188 12Q231 12 251 17T278 36T286 81V544Q286
575 279 587T253 603T189 607Q126 607 95 575Z" />
<glyph unicode="U" glyph-name="U" horiz-adv-x="698" d="M572 613T485 613Q482 613 482 619T485 625L529 624Q563 622 584 622Q601 622 635 624L676 625Q678 625 678 619T676 613Q596 613 596 516V231Q596 116 532 52T360 -13Q286 -13 231 16T145 98T114 224V544Q114
574 108 588T85 607T29 613Q26 613 26 619T29 625L78 624Q120 622 146 622Q174 622 216 624L264 625Q266 625 266 619T264 613Q227 613 209 607T185 587T179 542V259Q179 142 232 80T382 18Q471 18 521 74T572 230V516Q572 613 485 613Z" />
<glyph unicode="V" glyph-name="V" horiz-adv-x="665" d="M672 625T672 619T669 613Q635 613 610 595T568 534L355 1Q354 -3 344 -3Q334 -3 333 1L84 542Q67 581 48 597T-1 613Q-3 613 -3 619T-1 625L36 624Q64 622 82 622Q122 622 168 624L209 625Q212 625 212
619T209 613Q147 613 147 578Q147 566 156 546L365 88L545 539Q553 560 553 572Q553 593 534 603T475 613Q472 613 472 619T475 625L518 624Q552 622 580 622Q601 622 627 624L669 625Q672 625 672 619Z" />
<glyph unicode="W" glyph-name="W" horiz-adv-x="931" d="M937 625T937 619T935 613Q901 613 876 595T833 534L621 1Q620 -3 610 -3Q601 -3 598 1L468 285L355 1Q354 -3 344 -3Q334 -3 333 1L84 542Q66 583 48 598T-1 613Q-3 613 -3 619T-1 625L36 624Q64 622
82 622Q118 622 160 624L201 625Q204 625 204 619T201 613Q172 613 157 606T142 583Q142 570 153 546L365 89L455 313L350 542Q332 580 314 596T267 613Q264 613 264 619T267 625L303 624Q331 622 348 622Q376 622 406 624L434 625Q436 625 436 619T434 613Q415
613 407 610T399 598Q399 587 418 546L490 391L550 539Q561 569 561 584Q561 599 551 606T519 613Q516 613 516 619T519 625L543 624Q563 622 584 622Q604 622 630 624L671 625Q673 625 673 619T671 613Q637 613 614 596T572 534L503 363L630 89L811 537Q819 558
819 571Q819 593 801 603T743 613Q740 613 740 619T743 625L784 624Q818 622 846 622Q866 622 892 624L935 625Q937 625 937 619Z" />
<glyph unicode="X" glyph-name="X" horiz-adv-x="651" d="M638 12T638 6T635 0Q609 0 594 1L539 2L462 1Q444 0 413 0Q410 0 410 6T413 12Q439 12 451 16T464 30Q464 38 455 51L303 281L176 102Q152 69 152 47Q152 12 211 12Q214 12 214 6T211 0Q181 0 165 1L96
2L55 1Q43 0 17 0Q14 0 14 6T17 12Q86 12 153 103L294 295L133 540Q106 580 81 596T21 613Q18 613 18 619T21 625L59 624Q85 622 97 622Q129 622 179 624L232 625Q234 625 234 619T232 613Q205 613 193 609T180 594Q180 587 189 573L337 349L454 516Q481 555 481
578Q481 613 425 613Q422 613 422 619T425 625L470 624Q508 622 539 622Q556 622 582 624L619 625Q621 625 621 619T619 613Q550 613 477 514L346 335L513 83Q538 44 566 28T635 12Q638 12 638 6Z" />
<glyph unicode="Y" glyph-name="Y" horiz-adv-x="609" d="M616 625T616 619T613 613Q578 613 541 587T475 514L341 307V81Q341 50 347 36T370 17T426 12Q429 12 429 6T426 0Q395 0 378 1L308 2L240 1Q222 0 190 0Q187 0 187 6T190 12Q228 12 245 17T269 36T276
81V292L110 535Q82 579 57 596T-1 613Q-3 613 -3 619T-1 625Q11 625 35 623L70 622Q103 622 155 624L210 625Q212 625 212 619T210 613Q158 613 158 592Q158 581 168 568L329 331L450 518Q473 555 473 577Q473 613 419 613Q417 613 417 619T419 625L466 624Q504
622 536 622Q553 622 577 624L613 625Q616 625 616 619Z" />
<glyph unicode="Z" glyph-name="Z" horiz-adv-x="595" d="M450 600Q453 605 453 606T445 608Q266 608 201 603T111 576T64 497Q64 495 60 495Q57 495 55 496T53 499L92 655Q93 656 96 656Q106 656 104 653Q102 641 106 635T122 627T161 625H526Q531 625 533 620T533
612L143 27Q140 22 141 21T148 19H402Q469 19 504 47T551 135Q552 137 557 137T563 135L549 8Q549 5 546 2T539 -2Q391 0 61 0Q56 0 54 4T55 13L450 600Z" />
<glyph unicode="[" glyph-name="bracketleft" horiz-adv-x="274" d="M88 715Q88 722 89 723T97 725H236Q239 725 239 719T236 713Q197 713 179 707T153 687T146 642V-34Q146 -64 153 -78T178 -99T236 -105Q239 -105 239 -111T236 -117H97Q91 -117 90 -115T88 -106V715Z" />
<glyph unicode="\" glyph-name="backslash" horiz-adv-x="342" d="M255 25Q255 23 246 20T235 20L87 540Q86 543 95 546T105 547L255 25Z" />
<glyph unicode="]" glyph-name="bracketright" horiz-adv-x="274" d="M186 -113T185 -115T177 -117H38Q35 -117 35 -111T38 -105Q77 -105 95 -99T121 -79T128 -34V642Q128 672 121 686T96 707T38 713Q35 713 35 719T38 725H177Q183 725 184 724T186 715V-106Q186
-113 185 -115Z" />
<glyph unicode="^" glyph-name="asciicircum" horiz-adv-x="392" d="M333 379Q333 377 329 375T324 375L196 547L68 375Q67 374 65 374Q63 374 60 376T58 380L185 629Q186 634 196 634Q206 634 207 629L333 380V379Z" />
<glyph unicode="_" glyph-name="underscore" horiz-adv-x="398" d="M32 -76T31 -70T29 -55Q29 -48 30 -42T33 -36H364Q366 -36 367 -42T369 -56Q369 -63 368 -69T364 -76H34Q32 -76 31 -70Z" />
<glyph unicode="`" glyph-name="grave" horiz-adv-x="213" d="M41 731T50 731Q63 731 82 726T103 716L154 476Q155 474 150 473T144 474L42 727Q41 731 50 731Z" />
<glyph unicode="a" glyph-name="a" horiz-adv-x="419" d="M415 54Q419 54 420 50T418 43L315 -6Q309 -8 306 -8Q293 -8 283 9T270 56L208 23Q177 7 157 0T118 -7Q87 -7 71 9T54 52Q54 79 75 95T149 130L269 172V255Q269 321 252 348T204 375Q170 375 152 351T129
292Q126 275 119 265T92 254Q76 254 67 262T58 284Q58 307 88 333T160 377T237 395Q277 395 301 368T325 285V108Q325 73 334 57T363 40Q380 40 413 54H415ZM269 70V76V160L166 121Q143 113 134 102T124 73Q124 52 136 40T168 28Q184 28 208 39L269 70Z" />
<glyph unicode="b" glyph-name="b" horiz-adv-x="509" d="M356 399T392 378T451 315T473 214Q473 142 442 91T360 13T253 -13Q178 -13 116 31L41 -4L39 -5Q35 -5 35 -1T36 5Q68 27 81 46T94 103V597Q94 633 87 649T62 665Q43 665 16 652H14Q10 652 9 657T11 663L136
724L141 725Q143 725 146 723T150 717V312Q188 352 226 375T313 399Q356 399 392 378ZM342 6T374 51T407 181Q407 270 372 318T279 366Q245 366 214 348T150 296V131Q150 88 171 60T224 19T284 6Q342 6 374 51Z" />
<glyph unicode="c" glyph-name="c" horiz-adv-x="411" d="M166 -12T122 16T57 90T36 185Q36 249 68 296T151 369T255 395Q301 395 336 378T371 334Q371 321 362 312T336 302Q310 302 292 334Q280 355 265 365T221 375Q165 375 134 332T102 215Q102 132 144 78T271
23Q331 23 372 56H374Q377 56 379 53T379 48Q344 16 309 2T231 -12Q166 -12 122 16Z" />
<glyph unicode="d" glyph-name="d" horiz-adv-x="513" d="M507 57Q510 57 511 52T510 45L400 -7Q394 -9 392 -9Q379 -9 370 13T360 74Q323 35 283 11T192 -13Q150 -13 115 11T58 78T36 178Q36 249 71 299T159 374T265 399Q317 399 360 373V597Q360 633 353 649T327
665Q314 665 281 651H279Q275 651 274 656T276 662L402 724L407 725Q409 725 412 723T416 717V109Q416 73 424 58T452 42Q478 42 505 56L507 57ZM267 23T298 40T360 90V309Q336 343 307 361T237 379Q174 379 138 335T101 208Q101 153 118 111T164 46T231 23Q267
23 298 40Z" />
<glyph unicode="e" glyph-name="e" horiz-adv-x="407" d="M364 57Q367 57 369 53T370 47Q335 16 300 2T224 -12Q165 -12 123 14T58 85T36 180Q36 239 64 288T142 366T251 395Q305 395 335 369T365 296Q365 284 363 278T353 272L107 271Q102 244 102 219Q102 132
144 78T259 23Q315 23 363 56L364 57ZM176 375T149 352T110 285L296 289Q295 330 274 352T217 375Q176 375 149 352Z" />
<glyph unicode="f" glyph-name="f" horiz-adv-x="305" d="M370 726T403 711T436 673Q436 658 426 650T400 641Q388 641 380 647T361 667Q345 688 328 698T284 709Q226 709 192 642T158 439V375Q217 376 287 384Q289 384 291 378T294 362Q294 354 291 345T283 337Q227
351 158 353V81Q158 50 164 36T191 17T256 12Q259 12 259 6T256 0L192 1Q171 2 129 2L73 1Q58 0 32 0Q29 0 29 6T32 12Q62 12 76 17T95 37T101 81V306Q101 331 96 342T77 356T28 360Q24 360 24 366T28 373Q69 373 83 382T99 418Q104 580 158 653T319 726Q370 726
403 711Z" />
<glyph unicode="g" glyph-name="g" horiz-adv-x="433" d="M244 29Q303 20 337 11T396 -22T421 -88Q421 -134 387 -179T296 -253T173 -282Q102 -282 59 -248T15 -162Q15 -82 129 -6Q61 14 61 62Q61 89 81 115T133 165Q94 179 73 209T52 275Q52 327 96 360T207 393Q271
393 309 363Q337 379 362 387T416 395Q419 395 420 388T422 372Q422 360 419 348T412 338Q382 352 346 352Q329 352 322 350Q348 321 348 280Q348 246 329 217T276 171T196 154Q166 154 144 161Q127 149 118 132T108 97Q108 66 136 54T222 32L244 29ZM152 378T133
358T114 296Q114 238 144 204T217 169Q246 169 265 191T285 260Q285 312 254 345T182 378Q152 378 133 358ZM262 -252T297 -234T351 -186T370 -123Q370 -84 345 -63T286 -34T192 -18Q162 -14 148 -10Q113 -34 94 -61T74 -129Q74 -185 111 -218T213 -252Q262 -252
297 -234Z" />
<glyph unicode="h" glyph-name="h" horiz-adv-x="499" d="M480 12T480 6T477 0Q454 0 440 1L386 2L332 1Q318 0 295 0Q292 0 292 6T295 12Q322 12 335 17T353 37T358 81V240Q358 299 336 327T266 356Q235 356 203 340T145 294V81Q145 51 150 37T168 18T208 12Q211
12 211 6T208 0Q185 0 171 1L117 2L63 1Q49 0 26 0Q23 0 23 6T26 12Q53 12 66 17T84 37T89 81V598Q89 634 82 650T57 666Q42 666 11 652H9Q5 652 4 657T6 663L133 725H136Q139 725 142 723T145 717V311Q184 355 221 376T299 397Q354 397 384 366T414 274V81Q414
51 419 37T437 18T477 12Q480 12 480 6Z" />
<glyph unicode="i" glyph-name="i" horiz-adv-x="272" d="M51 0T51 6T53 12Q80 12 93 17T112 37T117 81V268Q117 304 110 320T84 336Q66 336 39 322H37Q33 322 32 327T34 334L163 394Q165 396 167 396Q170 396 172 393T175 387Q175 380 174 347T173 269V81Q173
51 178 37T196 18T236 12Q239 12 239 6T236 0Q213 0 199 1L145 2L91 1Q77 0 53 0Q51 0 51 6ZM116 511T105 522T93 555Q93 574 104 585T137 596Q157 596 168 585T179 555Q179 534 168 523T137 511Q116 511 105 522Z" />
<glyph unicode="j" glyph-name="j" horiz-adv-x="257" d="M167 380T166 347T165 269V-48Q165 -116 152 -159T109 -232T24 -282Q21 -283 19 -278T19 -271Q68 -250 88 -204T108 -71V268Q108 304 101 320T76 336Q58 336 30 322H28Q25 322 24 327T25 334L155 394Q157
396 158 396Q161 396 164 393T167 387Q167 380 166 347ZM108 511T97 522T85 555Q85 574 96 585T129 596Q149 596 160 585T171 555Q171 534 160 523T129 511Q108 511 97 522Z" />
<glyph unicode="k" glyph-name="k" horiz-adv-x="491" d="M486 12T486 6T483 0Q460 0 446 1L392 2L320 1Q304 0 277 0Q275 0 275 6T277 12Q327 12 327 31Q327 38 317 53L195 220L145 180V81Q145 51 150 37T168 18T208 12Q211 12 211 6T208 0Q185 0 171 1L117 2L63
1Q49 0 26 0Q23 0 23 6T26 12Q53 12 66 17T84 37T89 81V598Q89 634 82 650T57 666Q42 666 11 652H9Q5 652 4 657T6 663L132 724L136 725Q139 725 142 723T145 717V197L279 305Q311 330 311 349Q311 374 254 374Q251 374 251 380T254 386Q281 386 295 385L368 384L436
385Q449 386 471 386Q474 386 474 380T471 374Q434 374 389 356T299 302L241 256L368 81Q418 12 483 12Q486 12 486 6Z" />
<glyph unicode="l" glyph-name="l" horiz-adv-x="259" d="M37 0T37 6T40 12Q67 12 80 17T98 37T103 81V598Q103 634 96 650T71 666Q56 666 25 652H23Q20 652 19 657T20 663L148 724L152 725Q155 725 158 723T161 717V81Q161 52 166 38T184 18T224 12Q227 12 227
6T224 0Q201 0 187 1L132 2L78 1Q64 0 40 0Q37 0 37 6Z" />
<glyph unicode="m" glyph-name="m" horiz-adv-x="764" d="M745 12T745 6T742 0Q719 0 705 1L651 2L597 1Q583 0 560 0Q557 0 557 6T560 12Q587 12 600 17T618 37T623 81V240Q623 299 602 327T537 356Q507 356 477 340T420 293Q421 288 421 277V81Q421 51 426 37T444
18T484 12Q487 12 487 6T484 0Q461 0 447 1L393 2L339 1Q325 0 301 0Q299 0 299 6T301 12Q328 12 341 17T360 37T365 81V240Q365 299 344 327T279 356Q249 356 219 340T164 295V81Q164 51 169 37T187 18T227 12Q229 12 229 6T227 0Q203 0 189 1L135 2L82 1Q68 0
44 0Q42 0 42 6T44 12Q71 12 84 17T102 37T107 81V278Q107 312 99 327T72 343Q56 343 18 328L16 327Q12 327 11 332T13 338L129 394Q135 396 135 396Q144 396 154 373T164 313Q201 356 237 376T312 397Q357 397 384 375T419 308Q491 397 570 397Q623 397 651 366T679
274V81Q679 51 684 37T702 18T742 12Q745 12 745 6Z" />
<glyph unicode="n" glyph-name="n" horiz-adv-x="517" d="M498 12T498 6T496 0Q472 0 458 1L404 2L351 1Q337 0 313 0Q311 0 311 6T313 12Q340 12 353 17T371 37T376 81V243Q376 302 354 330T284 358Q253 358 222 342T164 296V81Q164 51 169 37T187 18T227 12Q229
12 229 6T227 0Q203 0 189 1L135 2L82 1Q68 0 44 0Q42 0 42 6T44 12Q71 12 84 17T102 37T107 81V278Q107 312 99 327T72 343Q56 343 18 328L16 327Q12 327 11 332T13 338L129 394Q135 396 135 396Q144 396 154 373T164 314Q202 357 239 378T318 399Q373 399 403
368T433 277V81Q433 51 438 37T456 18T496 12Q498 12 498 6Z" />
<glyph unicode="o" glyph-name="o" horiz-adv-x="480" d="M174 -13T130 15T61 92T36 198Q36 263 67 308T148 376T249 399Q308 399 352 370T419 294T443 193Q443 131 415 85T338 13T232 -13Q174 -13 130 15ZM314 5T344 44T375 165Q375 227 355 276T298 352T216
380Q162 380 133 341T103 229Q103 168 123 117T179 35T260 5Q314 5 344 44Z" />
<glyph unicode="p" glyph-name="p" horiz-adv-x="511" d="M360 399T395 377T452 313T473 215Q473 140 439 89T355 12T257 -13Q226 -13 202 -7T151 13V-194Q151 -224 158 -238T187 -257T251 -263Q254 -263 254 -269T251 -275Q216 -275 197 -274L124 -273L69 -274Q55
-275 31 -275Q29 -275 29 -269T31 -263Q59 -263 72 -258T90 -238T95 -194V276Q95 312 87 328T59 344Q39 344 5 329L3 328Q0 328 -1 333T0 339L111 393Q115 395 118 395Q131 395 140 374T151 313Q236 399 319 399Q360 399 395 377ZM340 8T374 54T408 184Q408 267
371 314T277 361Q241 361 211 344T151 295V72Q178 41 209 25T287 8Q340 8 374 54Z" />
<glyph unicode="q" glyph-name="q" horiz-adv-x="488" d="M475 -263T475 -269T473 -275Q449 -275 435 -274L380 -273L321 -274Q304 -275 274 -275Q271 -275 271 -269T274 -263Q308 -263 324 -258T347 -238T353 -194V72Q318 34 279 11T192 -13Q150 -13 114 9T57
72T36 171Q36 250 68 301T150 375T253 399Q321 399 386 364L453 388L455 389Q458 389 459 385T457 379Q433 365 421 346T409 295V-194Q409 -224 414 -238T432 -257T473 -263Q475 -263 475 -269ZM260 20T291 38T353 89V269Q353 320 317 350T223 380Q102 380 102
204Q102 118 136 69T226 20Q260 20 291 38Z" />
<glyph unicode="r" glyph-name="r" horiz-adv-x="364" d="M297 396T317 383T337 353Q337 340 329 332T304 323Q295 323 289 326T273 337Q264 345 256 349T237 353Q224 353 210 342T164 295V81Q164 51 171 37T199 18T262 12Q265 12 265 6T262 0Q229 0 209 1L135
2L82 1Q68 0 44 0Q42 0 42 6T44 12Q71 12 84 17T102 37T107 81V278Q107 312 99 327T72 343Q56 343 18 328L16 327Q12 327 11 332T13 338L129 394Q135 396 135 396Q144 396 154 373T164 312Q205 360 229 378T275 396Q297 396 317 383Z" />
<glyph unicode="s" glyph-name="s" horiz-adv-x="338" d="M100 290T123 270T191 226Q225 209 245 196T280 162T294 110Q294 60 256 25T152 -11Q99 -11 56 19Q50 24 50 31L48 109Q48 111 53 112T59 110Q78 60 109 34T181 8Q212 8 229 22T246 66Q246 94 234 113T203
145T153 172Q120 188 101 201T69 235T55 287Q55 341 95 369T191 398Q230 398 264 383Q274 379 274 372L273 341Q271 315 271 299Q271 297 266 297T260 299Q260 331 226 354T155 378Q130 378 115 365T100 325Q100 290 123 270Z" />
<glyph unicode="t" glyph-name="t" horiz-adv-x="338" d="M312 51Q315 51 317 47T316 41Q279 12 250 0T188 -12Q146 -12 119 7T92 70V305Q92 330 89 341T75 356T41 360Q37 360 37 367T41 374Q81 374 106 394T135 449Q135 453 143 453Q150 453 150 449V375Q213
376 289 384Q291 384 293 378T296 362Q296 354 293 345T285 337Q230 351 150 353V104Q150 23 229 23Q273 23 310 50L312 51Z" />
<glyph unicode="u" glyph-name="u" horiz-adv-x="493" d="M487 57Q491 57 492 53T490 46L374 -9L369 -10Q360 -10 351 13T341 73V77Q265 -8 183 -8Q132 -8 104 23T76 114V268Q76 307 69 324T46 342Q32 342 12 332H11Q7 332 5 337T7 344L118 394L122 395Q125 395
128 393T132 387V148Q132 32 216 32Q248 32 281 48T341 94V268Q341 308 335 325T312 342Q298 342 277 332H276Q272 332 271 337T273 344L384 394L388 395Q391 395 394 393T397 387V107Q397 73 405 58T432 43Q449 43 485 57H487Z" />
<glyph unicode="v" glyph-name="v" horiz-adv-x="434" d="M433 386T433 380T431 374Q406 374 389 358T354 301L229 1Q228 -3 218 -3Q208 -3 207 1L67 303Q47 346 34 360T0 374Q-3 374 -3 380T0 386Q19 386 30 385L69 384L134 385Q149 386 174 386Q177 386 177
380T174 374Q114 374 114 350Q114 343 118 335L240 76L334 306Q341 325 341 335Q341 355 322 364T262 374Q260 374 260 380T262 386Q289 386 303 385L363 384L399 385Q409 386 431 386Q433 386 433 380Z" />
<glyph unicode="w" glyph-name="w" horiz-adv-x="670" d="M669 386T669 380T667 374Q642 374 625 358T590 301L465 1Q464 -3 454 -3Q444 -3 443 1L330 244L229 1Q228 -3 218 -3Q208 -3 207 1L67 303Q47 346 34 360T0 374Q-3 374 -3 380T0 386Q19 386 30 385L69
384L130 385Q145 386 172 386Q175 386 175 380T172 374Q144 374 129 369T114 350Q114 343 118 335L241 77L320 267L303 303Q283 346 270 360T239 374Q236 374 236 380T239 386Q259 386 269 385L305 384L370 385Q384 386 408 386Q411 386 411 380T408 374Q350 374
350 350Q350 343 354 335L476 76L570 306Q577 321 577 336Q577 355 558 364T498 374Q496 374 496 380T498 386Q525 386 539 385L599 384L635 385Q645 386 667 386Q669 386 669 380Z" />
<glyph unicode="x" glyph-name="x" horiz-adv-x="439" d="M429 12T429 6T427 0L394 1Q383 2 363 2L299 1Q284 0 259 0Q257 0 257 6T259 12Q277 12 284 14T292 24Q292 33 280 51L203 167L144 80Q124 50 124 36Q124 24 137 18T181 12Q184 12 184 6T181 0Q154 0 141
1L81 2L44 1Q35 0 13 0Q10 0 10 6T13 12Q39 12 69 31T125 86L194 181L113 303Q88 340 62 357T16 374Q13 374 13 380T16 386Q37 386 47 385L78 384L142 385Q156 386 181 386Q184 386 184 380T181 374Q163 374 156 372T148 362Q148 353 160 335L230 230L281 306Q302
337 302 351Q302 363 289 368T244 374Q242 374 242 380T244 386Q271 386 285 385L345 384L381 385Q391 386 413 386Q415 386 415 380T413 374Q386 374 357 356T300 300L239 216L328 83Q353 45 379 29T427 12Q429 12 429 6Z" />
<glyph unicode="y" glyph-name="y" horiz-adv-x="435" d="M434 386T434 380T432 374Q405 374 388 357T354 297L232 -28Q195 -125 163 -179T96 -257T16 -281Q-6 -281 -20 -271T-35 -242Q-35 -228 -26 -220T-4 -212Q9 -212 18 -215T37 -225Q39 -226 48 -231T72 -236Q96
-236 117 -215T163 -145T221 -7L69 303Q47 347 35 360T3 374Q1 374 1 380T3 386L37 385Q49 384 70 384L134 385Q148 386 173 386Q176 386 176 380T173 374Q145 374 130 369T115 351Q115 343 119 335L252 63L332 294Q340 318 340 332Q340 355 322 364T263 374Q261
374 261 380T263 386Q290 386 304 385L364 384L400 385Q410 386 432 386Q434 386 434 380Z" />
<glyph unicode="z" glyph-name="z" horiz-adv-x="405" d="M281 367Q284 370 283 372T277 374Q200 374 157 367T89 341T54 284Q53 283 50 283Q41 283 42 286L76 415Q77 418 82 417T87 414Q86 411 86 406Q86 394 97 390T135 386H346Q351 386 354 382T354 374L119
22Q115 15 124 15Q222 15 263 21T324 46T358 114Q359 116 364 116T370 114L367 11Q367 7 365 4T358 0H49Q45 0 43 4T42 12L281 367Z" />
<glyph unicode="{" glyph-name="braceleft" horiz-adv-x="289" d="M29 298T29 304T32 311Q80 317 95 375T111 529Q111 615 122 655T162 710T250 725Q254 725 254 719T250 713Q214 713 195 686T174 607Q171 483 165 434T138 357T64 305Q116 281 137 252T165 173T174
1Q175 -50 194 -77T250 -105Q254 -105 254 -111T250 -117Q190 -117 162 -103T122 -47T111 80Q111 176 96 234T32 298Q29 298 29 304Z" />
<glyph unicode="|" glyph-name="bar" horiz-adv-x="168" d="M66 731Q66 738 86 738Q105 738 105 731V-154Q105 -158 99 -160T86 -162Q78 -162 72 -160T66 -154V731Z" />
<glyph unicode="}" glyph-name="braceright" horiz-adv-x="283" d="M203 292T188 234T172 80Q172 -6 161 -47T122 -102T33 -117Q29 -117 29 -111T33 -105Q69 -105 88 -78T109 1Q112 123 118 172T145 251T219 305Q166 328 145 356T118 434T109 607Q108 658 89 685T33
713Q29 713 29 719T33 725Q92 725 121 711T161 656T172 529Q172 434 187 376T251 311Q254 311 254 305T251 298Q203 292 188 234Z" />
<glyph unicode="~" glyph-name="asciitilde" horiz-adv-x="443" d="M342 198T357 207T389 236L391 237Q393 237 395 234T396 229Q360 183 339 168T290 153Q271 153 254 157T211 171Q187 180 169 184T130 189Q111 189 99 185T77 171T55 151Q55 150 53 150Q51 150
49 153T48 158Q105 234 161 234Q175 234 192 229T228 218Q254 208 274 203T314 198Q342 198 357 207Z" />
<glyph unicode="&#xa0;" glyph-name="uni00A0" horiz-adv-x="234" />
<glyph unicode="&#xa1;" glyph-name="exclamdown" horiz-adv-x="247" d="M145 365T156 354T168 321Q168 302 157 291T124 280Q104 280 93 291T82 321Q82 342 93 353T124 365Q145 365 156 354ZM170 -270T155 -272T123 -275Q106 -275 91 -273T77 -266Q94 -180 102
-82T118 165Q118 168 126 168Q133 168 133 165Q138 29 145 -75T169 -266Q170 -270 155 -272Z" />
<glyph unicode="&#xa2;" glyph-name="cent" horiz-adv-x="538" d="M482 143T487 143Q489 143 491 142T494 139L481 33Q480 25 478 22T467 15Q390 -12 307 -12H298V-102Q298 -109 287 -109Q276 -109 276 -102V-11Q193 -4 139 34T61 127T36 236Q36 299 67 352T152
438T276 478V561Q276 565 279 567T287 569Q292 569 295 567T298 561V480H311Q349 480 392 472T463 451Q470 448 472 445T475 434L484 331Q484 328 479 327T473 330Q455 397 410 430T298 465V3Q304 2 317 2Q378 2 420 36T482 140Q482 143 487 143ZM108 195T127 143T184
54T276 6V464Q227 461 189 433T130 357T108 251Q108 195 127 143Z" />
<glyph unicode="&#xa3;" glyph-name="sterling" horiz-adv-x="432" d="M368 126T372 126Q380 126 380 123Q371 73 371 15Q371 7 368 4T356 0H31Q29 0 29 5T31 12Q82 25 100 46T119 105Q119 160 100 219H53Q46 219 46 230Q46 241 53 241H93Q85 267 81 287T76 332Q76
406 125 443T246 480Q292 480 336 464Q351 458 352 445L359 344Q359 340 354 340Q348 340 347 344Q337 394 309 429T233 465Q183 465 160 436T137 364Q137 337 142 314T153 270T161 241H274Q281 241 281 230Q281 219 274 219H167Q177 182 177 148Q177 108 164 85T125
41H251Q295 41 316 47T349 70T368 124Q368 126 372 126Z" />
<glyph unicode="&#xa4;" glyph-name="currency" horiz-adv-x="414" d="M333 36L286 91Q245 65 196 65Q156 65 123 85L78 36L55 60L99 106Q81 125 71 150T61 202Q61 256 100 293L50 343L78 368L129 314Q167 335 211 335Q255 335 290 312L339 365L361 343L312 294Q349
255 349 201Q349 149 313 113L363 63L333 36ZM250 82T271 108T292 180Q292 235 264 276T188 318Q154 318 135 294T115 223Q115 168 140 125T215 82Q250 82 271 108Z" />
<glyph unicode="&#xa5;" glyph-name="yen" horiz-adv-x="481" d="M474 468T474 462T472 456Q439 456 409 433T352 366L270 230V213H373Q377 213 379 210T381 203Q381 198 379 195T373 192H270V153H373Q377 153 379 150T381 143Q381 138 379 135T373 132H270V81Q270
50 276 36T299 17T356 12Q358 12 358 6T356 0Q325 0 307 1L239 2L173 1Q154 0 122 0Q119 0 119 6T122 12Q160 12 178 17T202 36T209 81V132H103Q100 132 98 135T96 143Q96 147 98 150T103 153H209V192H103Q100 192 98 195T96 203Q96 207 98 210T103 213H209V214L97
385Q71 424 50 440T-3 456Q-5 456 -5 462T-3 468L30 467Q54 465 63 465Q93 465 139 467L189 468Q191 468 191 462T189 456Q145 456 145 435Q145 425 153 413L262 247L331 367Q348 398 348 418Q348 436 337 446T306 456Q303 456 303 462T306 468L348 467Q380 465
409 465Q424 465 442 467L472 468Q474 468 474 462Z" />
<glyph unicode="&#xa6;" glyph-name="brokenbar" horiz-adv-x="168" d="M66 731Q66 738 86 738Q105 738 105 731V360Q105 357 99 355T86 353Q78 353 72 355T66 360V731ZM66 216Q66 220 72 222T86 224Q93 224 99 222T105 216V-154Q105 -158 99 -160T86 -162Q78
-162 72 -160T66 -154V216Z" />
<glyph unicode="&#xa7;" glyph-name="section" horiz-adv-x="441" d="M360 -8T360 -57Q360 -121 315 -154T209 -188Q157 -188 121 -170Q111 -164 110 -153L102 -55Q102 -52 108 -52T114 -55Q118 -77 137 -103T184 -147T245 -165Q274 -165 293 -147T312 -92Q312
-48 285 -19T203 45Q160 73 135 94T91 147T73 223Q73 262 86 290T140 355Q103 394 103 440Q103 505 147 538T253 572Q305 572 341 553Q351 547 351 537L359 438Q359 436 354 436T348 438Q344 461 325 487T278 531T217 549Q188 549 170 531T151 475Q151 431 177
402T258 338Q300 310 325 289T368 236T386 160Q386 122 372 94T320 30Q360 -8 360 -57ZM121 215T139 183T182 129T251 80Q293 54 310 39Q338 72 338 125Q338 169 321 201T278 255T210 303Q168 331 150 346Q121 313 121 259Q121 215 139 183Z" />
<glyph unicode="&#xa8;" glyph-name="dieresis" horiz-adv-x="322" d="M54 477T43 488T31 519Q31 538 42 549T74 560Q93 560 104 549T115 519Q115 499 104 488T74 477Q54 477 43 488ZM229 477T218 488T206 519Q206 538 217 548T249 559Q268 559 279 549T290 519Q290
499 279 488T249 477Q229 477 218 488Z" />
<glyph unicode="&#xa9;" glyph-name="copyright" horiz-adv-x="719" d="M298 -102T230 -69T118 31T74 190Q74 279 119 349T239 459T398 498Q473 498 529 467T617 384T648 270Q648 209 616 156T527 71T402 39Q341 39 301 61T242 119T223 195Q223 246 248 284T313
343T395 364Q431 364 460 350T491 314Q491 302 483 294T461 285Q444 285 425 311Q414 329 402 338T368 347Q324 347 305 315T286 221Q286 152 321 109T435 66Q481 66 520 85T584 143T609 241Q609 305 577 358T490 443T366 475Q289 475 233 440T148 346T119 213Q119
122 161 58T267 -39T396 -71Q455 -71 498 -62T594 -25H595Q597 -25 598 -27T599 -32Q546 -73 491 -87T369 -102Q298 -102 230 -69Z" />
<glyph unicode="&#xaa;" glyph-name="ordfeminine" horiz-adv-x="278" d="M271 407Q275 407 277 403T276 398L208 366Q198 362 189 373T178 407L137 385Q116 373 105 369T80 365Q59 365 47 376T35 404Q35 420 47 430T92 452L178 483V538Q178 584 166 598T131 612Q112
612 100 598T83 561Q81 550 77 544T60 537Q49 537 42 543T35 558Q35 573 56 590T107 618T158 630Q183 630 199 612T215 558V441Q215 418 220 408T237 398Q245 398 270 407H271ZM178 419V472L108 445Q92 439 87 434T81 418Q81 406 88 399T109 391Q123 391 134 397L178
419ZM262 314T263 310T265 301Q265 296 264 292T260 287H35Q33 287 32 291T30 301Q30 306 31 310T34 314H260Q262 314 263 310Z" />
<glyph unicode="&#xab;" glyph-name="guillemotleft" horiz-adv-x="456" d="M59 189Q55 193 55 201Q55 208 59 212L236 361Q238 364 241 361T243 356L121 201L243 46V45Q243 42 241 40T236 40L59 189ZM211 189Q207 193 207 201Q207 208 211 212L388 361Q390 364
393 361T395 356L273 201L395 46V45Q395 42 393 40T388 40L211 189Z" />
<glyph unicode="&#xac;" glyph-name="logicalnot" horiz-adv-x="395" d="M364 77Q364 75 358 74T343 72Q336 72 330 73T324 76V228H34Q32 228 31 234T29 249Q29 256 30 262T33 268H364V77Z" />
<glyph unicode="&#xad;" glyph-name="uni00AD" horiz-adv-x="323" d="M30 165T29 173T27 191Q27 210 30 211L291 257Q293 258 294 251T296 236Q296 228 295 221T291 213L32 166Q30 165 29 173Z" />
<glyph unicode="&#xae;" glyph-name="registered" horiz-adv-x="750" d="M480 725T544 688T643 589T678 451Q678 365 636 293T523 180T367 138Q294 138 227 172T117 272T74 428Q74 513 118 581T237 687T395 725Q480 725 544 688ZM469 167T524 198T610 287T640
422Q640 501 604 565T505 665T363 702Q285 702 230 668T146 578T117 453Q117 365 158 300T263 201T395 167Q469 167 524 198ZM566 280T566 276T564 272H485Q466 272 386 435Q362 429 330 431V328Q330 307 333 299T347 287T381 284Q383 284 383 278T381 272L309
273L238 272Q236 272 236 278T238 284Q262 284 271 287T284 298T288 328V543Q288 571 279 579T238 588Q236 588 236 593T238 599L309 598Q321 598 353 600Q381 602 391 602Q482 602 482 535Q482 506 468 484T427 448Q462 379 481 348T519 300T564 280Q566 280 566
276ZM351 446T367 446Q403 446 420 461T438 513Q438 589 374 589Q355 589 347 587T334 574T330 541V449Q351 446 367 446Z" />
<glyph unicode="&#xaf;" glyph-name="overscore" horiz-adv-x="345" d="M41 483T41 497Q41 511 47 511H298Q305 511 305 497Q305 483 298 483H47Q41 483 41 497Z" />
<glyph unicode="&#xb0;" glyph-name="degree" horiz-adv-x="332" d="M106 373T68 410T29 503Q29 556 67 593T167 630Q228 630 265 593T303 501Q303 446 266 410T167 373Q106 373 68 410ZM218 384T232 411T246 494Q246 619 161 619Q118 619 103 590T88 506Q88 449
107 417T174 384Q218 384 232 411Z" />
<glyph unicode="&#xb1;" glyph-name="plusminus" horiz-adv-x="398" d="M32 233T31 239T29 254Q29 261 30 267T33 273H179V418Q179 422 199 422Q219 422 219 418V273H364Q366 273 367 267T369 253Q369 246 368 240T364 233H219V88Q219 86 213 85T198 83Q191 83
185 84T179 87V233H34Q32 233 31 239ZM366 37T367 32T369 19Q369 12 368 7T364 1H34Q32 1 31 7T29 20Q29 26 30 31T33 37H364Q366 37 367 32Z" />
<glyph unicode="&#xb2;" glyph-name="uni00B2" horiz-adv-x="251" d="M37 430T51 453T89 508Q122 555 139 586T156 649Q156 677 143 692T106 707Q82 707 64 691T40 651Q39 647 34 648T29 653Q49 729 124 729Q163 729 183 709T204 658Q204 629 183 598T123 524Q74
469 64 444Q64 440 66 440Q135 440 160 443T194 456T211 494Q211 496 214 496T218 494L217 407Q217 403 212 403H35Q29 403 31 408Q37 430 51 453Z" />
<glyph unicode="&#xb3;" glyph-name="uni00B3" horiz-adv-x="251" d="M217 555T217 495Q217 455 190 426T115 396Q77 396 54 415T23 465Q22 469 28 470T35 468Q41 447 59 431T108 415Q135 415 152 431T169 483Q169 521 148 543T94 565Q91 565 91 570T94 576Q123
576 139 599T156 649Q156 674 142 690T105 707Q82 707 64 691T40 650Q40 648 36 648Q33 648 31 649T29 653Q38 687 61 708T123 729Q160 729 182 709T204 657Q204 629 187 607T140 573Q217 555 217 495Z" />
<glyph unicode="&#xb4;" glyph-name="acute" horiz-adv-x="212" d="M69 472T65 472Q62 472 60 473T58 476L110 716Q111 720 130 725T163 731Q172 731 171 727L69 474Q69 472 65 472Z" />
<glyph unicode="&#xb6;" glyph-name="paragraph" horiz-adv-x="639" d="M306 -193T290 -181T273 -150Q273 -134 281 -125T304 -116Q321 -116 328 -123T341 -144Q349 -158 355 -164T378 -171Q406 -171 417 -130T429 8V125Q393 122 350 122Q274 122 207 148T97 233T54
386Q54 505 125 566T323 628Q353 628 387 625Q462 622 471 622Q491 622 531 624L581 625Q584 625 584 619T581 613Q538 613 516 592T493 532L494 55Q494 -75 456 -134T333 -193Q306 -193 290 -181Z" />
<glyph unicode="&#xb7;" glyph-name="middot" horiz-adv-x="195" d="M77 157T66 168T54 201Q54 220 65 231T98 242Q118 242 129 231T140 201Q140 180 129 169T98 157Q77 157 66 168Z" />
<glyph unicode="&#xb8;" glyph-name="cedilla" horiz-adv-x="232" d="M101 -44T101 -58Q101 -72 109 -79T144 -102Q170 -117 184 -134T199 -179Q199 -216 173 -245T95 -275Q67 -275 49 -265T31 -236Q31 -224 40 -216T61 -207Q72 -207 78 -212T90 -229Q97 -242
104 -248T127 -255Q142 -255 151 -246T160 -218Q160 -192 142 -171T75 -124Q61 -117 61 -111Q61 -107 66 -94Q71 -81 91 -30Q93 -22 96 -15T101 -1L115 -2Q101 -44 101 -58Z" />
<glyph unicode="&#xb9;" glyph-name="uni00B9" horiz-adv-x="262" d="M44 403T44 408T47 414Q80 414 93 418T111 435T115 483V601V632Q115 661 113 671T99 682Q92 682 76 676T40 661H39Q36 661 33 666T34 672L150 728H152Q154 728 156 726T159 721V483Q159 449
163 436T179 418T223 414Q226 414 226 409T223 403Q200 403 187 404L138 405L85 404Q71 403 47 403Q44 403 44 408Z" />
<glyph unicode="&#xba;" glyph-name="ordmasculine" horiz-adv-x="316" d="M96 359T61 399T26 498Q26 541 47 570T100 615T165 630Q203 630 231 611T275 561T291 495Q291 458 272 427T222 377T153 359Q96 359 61 399ZM204 374T225 401T247 477Q247 535 219 574T146
614Q110 614 90 589T70 517Q70 459 98 417T168 374Q204 374 225 401ZM33 287T33 302Q33 314 36 314H280Q284 314 284 301Q284 287 280 287H37Q33 287 33 302Z" />
<glyph unicode="&#xbb;" glyph-name="guillemotright" horiz-adv-x="456" d="M245 212Q250 207 250 201Q250 194 245 189L68 40Q67 39 65 39Q63 39 62 41T61 46L183 200L61 356Q60 358 63 361T68 361L245 212ZM397 212Q402 207 402 201Q402 194 397 189L220 40Q220
39 218 39Q216 39 214 41T213 46L335 200L213 356Q212 358 215 361T220 361L397 212Z" />
<glyph unicode="&#xbc;" glyph-name="onequarter" horiz-adv-x="600" d="M44 309T44 314T47 320Q80 320 93 324T111 341T115 389V508V538Q115 567 113 577T99 588Q92 588 76 582T40 567H39Q36 567 33 572T34 578L150 634H152Q154 634 156 632T159 627V389Q159
355 163 342T179 324T223 320Q226 320 226 315T223 309Q200 309 187 310L138 311L85 310Q71 309 47 309Q44 309 44 314ZM184 -1T182 -1Q177 -1 168 3T160 10L439 627Q439 628 441 628Q446 628 455 624T463 617L184 0Q184 -1 182 -1ZM574 11T574 5T572 -1L511 0L433
-1Q432 -1 432 5T433 11Q458 11 468 13T483 21T487 41V92Q419 94 362 94Q359 94 358 96T358 101L514 323Q516 325 520 325Q523 325 525 324T528 321V113Q540 113 572 115Q575 115 575 102Q575 88 572 88Q544 90 528 90V41Q528 27 530 22T541 14T572 11Q574 11 574
5ZM437 109T487 111V259L396 112Q393 109 398 109Q437 109 487 111Z" />
<glyph unicode="&#xbd;" glyph-name="onehalf" horiz-adv-x="610" d="M44 309T44 314T47 320Q80 320 93 324T111 341T115 389V508V538Q115 567 113 577T99 588Q92 588 76 582T40 567H39Q36 567 33 572T34 578L150 634H152Q154 634 156 632T159 627V389Q159 355
163 342T179 324T223 320Q226 320 226 315T223 309Q200 309 187 310L138 311L85 310Q71 309 47 309Q44 309 44 314ZM184 -1T182 -1Q177 -1 168 3T160 10L439 627Q439 628 441 628Q446 628 455 624T463 617L184 0Q184 -1 182 -1ZM396 27T409 48T447 105Q480 150
497 182T515 247Q515 274 502 289T465 305Q441 305 423 289T399 248Q399 245 395 245Q392 245 390 246T388 250Q408 326 483 326Q522 326 542 306T563 255Q563 226 542 195T482 121Q433 66 423 41Q423 38 425 38Q494 38 519 40T553 53T570 91Q570 93 573 93T577
91L576 5Q576 0 571 0H394Q389 0 390 6Q396 27 409 48Z" />
<glyph unicode="&#xbe;" glyph-name="threequarters" horiz-adv-x="589" d="M217 463T217 401Q217 361 190 332T115 303Q77 303 54 322T23 372Q22 375 28 376T35 374Q41 353 59 337T108 321Q135 321 152 337T169 390Q169 427 148 449T94 471Q91 471 91 477T94
483Q123 483 139 505T156 555Q156 580 142 596T105 613Q82 613 64 597T40 556Q40 554 36 554Q33 554 31 555T29 559Q38 593 61 614T123 635Q160 635 182 615T204 563Q204 535 187 513T140 479Q217 463 217 401ZM173 -1T171 -1Q166 -1 157 3T149 10L428 627Q428
628 430 628Q435 628 444 624T452 617L173 0Q173 -1 171 -1ZM563 11T563 5T561 -1L500 0L422 -1Q421 -1 421 5T422 11Q447 11 457 13T472 21T476 41V92Q408 94 351 94Q348 94 347 96T347 101L503 323Q505 325 509 325Q512 325 514 324T517 321V113Q529 113 561
115Q564 115 564 102Q564 88 561 88Q533 90 517 90V41Q517 27 519 22T530 14T561 11Q563 11 563 5ZM426 109T476 111V259L385 112Q382 109 387 109Q426 109 476 111Z" />
<glyph unicode="&#xbf;" glyph-name="questiondown" horiz-adv-x="327" d="M192 361T203 350T215 317Q215 298 204 287T171 276Q151 276 140 287T129 317Q129 338 140 349T171 361Q192 361 203 350ZM192 -261T200 -250T212 -215Q215 -195 223 -183T250 -171Q266
-171 275 -181T284 -205Q284 -234 249 -254T165 -275Q107 -275 68 -244T29 -156Q29 -125 40 -102T64 -63T106 -22Q140 12 154 40T169 102Q169 124 163 157Q162 159 168 160T175 159Q186 133 193 98T201 40Q201 9 189 -11T151 -57Q124 -84 111 -107T97 -167Q97 -209
117 -235T169 -261Q192 -261 200 -250Z" />
<glyph unicode="&#xc0;" glyph-name="Agrave" horiz-adv-x="702" d="M703 12T703 6T698 0Q678 0 640 2Q600 4 583 4Q561 4 527 2Q493 0 477 0Q473 0 473 6T477 12Q514 12 531 19T548 43Q548 57 535 86L419 331H231L145 127Q131 93 131 71Q131 12 229 12Q234 12
234 6T229 0Q212 0 178 2Q140 4 111 4Q85 4 51 2Q21 0 1 0Q-4 0 -4 6T1 12Q29 12 48 22T85 59T124 136L335 634Q336 636 341 636T348 634L584 137Q608 86 625 60T659 23T698 12Q703 12 703 6ZM409 352L320 541L240 352H409ZM383 704T332 722T218 756Q210 758 224
766T258 780T282 784Q304 770 315 764Q399 712 445 689Q447 687 447 685Q447 682 445 680T440 679Q383 704 332 722Z" />
<glyph unicode="&#xc1;" glyph-name="Aacute" horiz-adv-x="702" d="M703 12T703 6T698 0Q678 0 640 2Q600 4 583 4Q561 4 527 2Q493 0 477 0Q473 0 473 6T477 12Q514 12 531 19T548 43Q548 57 535 86L419 331H231L145 127Q131 93 131 71Q131 12 229 12Q234 12
234 6T229 0Q212 0 178 2Q140 4 111 4Q85 4 51 2Q21 0 1 0Q-4 0 -4 6T1 12Q29 12 48 22T85 59T124 136L335 634Q336 636 341 636T348 634L584 137Q608 86 625 60T659 23T698 12Q703 12 703 6ZM409 352L320 541L240 352H409ZM242 678Q238 678 237 682T239 689Q276
707 348 752Q384 774 402 784Q406 787 425 781T459 766T466 756Q404 741 353 723T244 679L242 678Z" />
<glyph unicode="&#xc2;" glyph-name="Acircumflex" horiz-adv-x="702" d="M703 12T703 6T698 0Q678 0 640 2Q600 4 583 4Q561 4 527 2Q493 0 477 0Q473 0 473 6T477 12Q514 12 531 19T548 43Q548 57 535 86L419 331H231L145 127Q131 93 131 71Q131 12 229 12Q234
12 234 6T229 0Q212 0 178 2Q140 4 111 4Q85 4 51 2Q21 0 1 0Q-4 0 -4 6T1 12Q29 12 48 22T85 59T124 136L335 634Q336 636 341 636T348 634L584 137Q608 86 625 60T659 23T698 12Q703 12 703 6ZM409 352L320 541L240 352H409ZM329 752Q334 757 340 757Q347 757
352 752L454 655Q455 655 455 653Q455 651 453 649T449 648L341 705L232 648Q230 647 227 650T226 655L329 752Z" />
<glyph unicode="&#xc3;" glyph-name="Atilde" horiz-adv-x="702" d="M703 12T703 6T698 0Q678 0 640 2Q600 4 583 4Q561 4 527 2Q493 0 477 0Q473 0 473 6T477 12Q514 12 531 19T548 43Q548 57 535 86L419 331H231L145 127Q131 93 131 71Q131 12 229 12Q234 12
234 6T229 0Q212 0 178 2Q140 4 111 4Q85 4 51 2Q21 0 1 0Q-4 0 -4 6T1 12Q29 12 48 22T85 59T124 136L335 634Q336 636 341 636T348 634L584 137Q608 86 625 60T659 23T698 12Q703 12 703 6ZM409 352L320 541L240 352H409ZM436 742T446 749T468 769H469Q472 769
474 767T476 762Q449 725 433 713T396 700Q378 700 359 705T335 711Q294 724 265 724Q247 724 239 718T216 697H215Q213 697 211 699T209 704Q226 728 248 747T294 767Q311 767 344 756Q349 755 372 749T419 742Q436 742 446 749Z" />
<glyph unicode="&#xc4;" glyph-name="Adieresis" horiz-adv-x="702" d="M703 12T703 6T698 0Q678 0 640 2Q600 4 583 4Q561 4 527 2Q493 0 477 0Q473 0 473 6T477 12Q514 12 531 19T548 43Q548 57 535 86L419 331H231L145 127Q131 93 131 71Q131 12 229 12Q234
12 234 6T229 0Q212 0 178 2Q140 4 111 4Q85 4 51 2Q21 0 1 0Q-4 0 -4 6T1 12Q29 12 48 22T85 59T124 136L335 634Q336 636 341 636T348 634L584 137Q608 86 625 60T659 23T698 12Q703 12 703 6ZM409 352L320 541L240 352H409ZM234 716T223 727T211 758Q211 777
222 788T254 799Q273 799 284 788T295 758Q295 738 284 727T254 716Q234 716 223 727ZM409 716T398 727T386 758Q386 777 397 787T429 798Q448 798 459 788T470 758Q470 738 459 727T429 716Q409 716 398 727Z" />
<glyph unicode="&#xc5;" glyph-name="Aring" horiz-adv-x="702" d="M703 12T703 6T698 0Q678 0 640 2Q600 4 583 4Q561 4 527 2Q493 0 477 0Q473 0 473 6T477 12Q514 12 531 19T548 43Q548 57 535 86L419 331H231L145 127Q131 93 131 71Q131 12 229 12Q234 12
234 6T229 0Q212 0 178 2Q140 4 111 4Q85 4 51 2Q21 0 1 0Q-4 0 -4 6T1 12Q29 12 48 22T85 59T124 136L335 634Q336 636 341 636T348 634L584 137Q608 86 625 60T659 23T698 12Q703 12 703 6ZM409 352L320 541L240 352H409ZM296 664T272 688T248 744Q248 780 278
800T346 821Q382 821 407 798T433 741Q433 706 404 685T336 664Q296 664 272 688ZM370 675T379 686T388 724Q388 759 370 785T326 811Q309 811 301 800T293 764Q293 730 309 703T351 675Q370 675 379 686Z" />
<glyph unicode="&#xc6;" glyph-name="AE" horiz-adv-x="875" d="M813 151T817 151Q820 151 822 150T825 147Q815 77 815 15Q815 7 812 4T800 0H392Q389 0 389 6T392 12Q430 12 447 17T471 36T477 81V315H305L176 126Q146 83 146 55Q146 12 223 12Q228 12 228 6T223
0Q204 0 170 2Q130 4 101 4Q77 4 47 2Q19 0 2 0Q-3 0 -3 6T2 12Q33 12 72 43T150 132L454 574Q466 591 466 599Q466 608 450 610T389 613Q387 613 387 619T389 625H783Q792 625 792 616L794 492Q794 490 789 490T783 492Q781 539 751 571T675 604H621Q586 604 570
599T547 582T540 543V335H653Q701 335 722 351T743 406Q743 408 748 408T754 406L753 325L754 280Q756 250 756 233Q756 230 750 230T744 233Q744 277 723 296T650 315H540V85Q540 58 546 45T569 26T619 21H692Q735 21 769 57T813 149Q813 151 817 151ZM477 335V567L319
335H477Z" />
<glyph unicode="&#xc7;" glyph-name="Ccedilla" horiz-adv-x="669" d="M614 165T619 165Q626 165 626 162L611 49Q609 37 607 33T596 26Q506 -12 406 -12H387Q376 -45 376 -58Q376 -71 384 -78T419 -102Q445 -117 459 -134T474 -179Q474 -216 448 -245T370 -275Q342
-275 324 -265T306 -236Q306 -224 315 -216T336 -207Q347 -207 353 -212T365 -229Q372 -242 379 -248T402 -255Q417 -255 426 -246T435 -218Q435 -192 417 -171T350 -124Q336 -117 336 -111Q336 -107 341 -94Q354 -61 372 -11Q263 -4 191 45T84 167T49 318Q49 410
100 482T235 595T415 636Q463 636 512 627T590 601Q599 596 601 593T604 578L616 465Q616 463 611 462T605 464Q583 541 523 577T376 614Q300 614 243 581T155 486T124 345Q124 252 162 173T266 48T408 2Q480 2 533 41T614 163Q614 165 619 165Z" />
<glyph unicode="&#xc8;" glyph-name="Egrave" horiz-adv-x="537" d="M475 151T480 151Q482 151 484 150T487 147Q478 84 478 15Q478 7 475 4T463 0H44Q41 0 41 6T44 12Q82 12 99 17T123 36T129 81V544Q129 574 123 588T100 607T44 613Q41 613 41 619T44 625H445Q454
625 454 616L457 492Q457 490 451 490T445 492Q441 545 412 574T335 604H274Q240 604 223 599T200 581T194 539V335H316Q364 335 384 351T405 406Q405 408 411 408T417 406L416 325Q416 295 417 280L418 233Q418 230 412 230T406 233Q406 277 385 296T313 315H194V85Q194
58 200 45T222 26T272 21H352Q399 21 431 55T475 149Q475 151 480 151ZM334 704T283 722T169 756Q161 758 175 766T209 780T233 784Q255 770 266 764Q350 712 396 689Q398 687 398 685Q398 682 396 680T391 679Q334 704 283 722Z" />
<glyph unicode="&#xc9;" glyph-name="Eacute" horiz-adv-x="537" d="M475 151T480 151Q482 151 484 150T487 147Q478 84 478 15Q478 7 475 4T463 0H44Q41 0 41 6T44 12Q82 12 99 17T123 36T129 81V544Q129 574 123 588T100 607T44 613Q41 613 41 619T44 625H445Q454
625 454 616L457 492Q457 490 451 490T445 492Q441 545 412 574T335 604H274Q240 604 223 599T200 581T194 539V335H316Q364 335 384 351T405 406Q405 408 411 408T417 406L416 325Q416 295 417 280L418 233Q418 230 412 230T406 233Q406 277 385 296T313 315H194V85Q194
58 200 45T222 26T272 21H352Q399 21 431 55T475 149Q475 151 480 151ZM193 678Q189 678 188 682T190 689Q227 707 299 752Q335 774 353 784Q357 787 376 781T410 766T417 756Q355 741 304 723T195 679L193 678Z" />
<glyph unicode="&#xca;" glyph-name="Ecircumflex" horiz-adv-x="537" d="M475 151T480 151Q482 151 484 150T487 147Q478 84 478 15Q478 7 475 4T463 0H44Q41 0 41 6T44 12Q82 12 99 17T123 36T129 81V544Q129 574 123 588T100 607T44 613Q41 613 41 619T44 625H445Q454
625 454 616L457 492Q457 490 451 490T445 492Q441 545 412 574T335 604H274Q240 604 223 599T200 581T194 539V335H316Q364 335 384 351T405 406Q405 408 411 408T417 406L416 325Q416 295 417 280L418 233Q418 230 412 230T406 233Q406 277 385 296T313 315H194V85Q194
58 200 45T222 26T272 21H352Q399 21 431 55T475 149Q475 151 480 151ZM281 790Q286 795 293 795Q299 795 304 790L406 693Q409 692 406 688T401 686L293 743L184 686Q182 685 179 688T178 693L281 790Z" />
<glyph unicode="&#xcb;" glyph-name="Edieresis" horiz-adv-x="537" d="M475 151T480 151Q482 151 484 150T487 147Q478 84 478 15Q478 7 475 4T463 0H44Q41 0 41 6T44 12Q82 12 99 17T123 36T129 81V544Q129 574 123 588T100 607T44 613Q41 613 41 619T44 625H445Q454
625 454 616L457 492Q457 490 451 490T445 492Q441 545 412 574T335 604H274Q240 604 223 599T200 581T194 539V335H316Q364 335 384 351T405 406Q405 408 411 408T417 406L416 325Q416 295 417 280L418 233Q418 230 412 230T406 233Q406 277 385 296T313 315H194V85Q194
58 200 45T222 26T272 21H352Q399 21 431 55T475 149Q475 151 480 151ZM185 716T174 727T162 758Q162 777 173 788T205 799Q224 799 235 788T246 758Q246 738 235 727T205 716Q185 716 174 727ZM360 716T349 727T337 758Q337 777 348 787T380 798Q399 798 410 788T421
758Q421 738 410 727T380 716Q360 716 349 727Z" />
<glyph unicode="&#xcc;" glyph-name="Igrave" horiz-adv-x="332" d="M199 50T205 36T228 17T284 12Q287 12 287 6T284 0Q254 0 236 1L165 2L97 1Q79 0 47 0Q44 0 44 6T47 12Q85 12 102 17T126 36T133 81V544Q133 574 127 588T103 607T47 613Q44 613 44 619T47
625L97 624Q139 622 165 622Q195 622 237 624L284 625Q287 625 287 619T284 613Q247 613 229 607T205 587T199 542V81Q199 50 205 36ZM208 704T157 722T43 756Q35 758 49 766T83 780T107 784Q129 770 140 764Q224 712 270 689Q272 687 272 685Q272 682 270 680T265
679Q208 704 157 722Z" />
<glyph unicode="&#xcd;" glyph-name="Iacute" horiz-adv-x="332" d="M199 50T205 36T228 17T284 12Q287 12 287 6T284 0Q254 0 236 1L165 2L97 1Q79 0 47 0Q44 0 44 6T47 12Q85 12 102 17T126 36T133 81V544Q133 574 127 588T103 607T47 613Q44 613 44 619T47
625L97 624Q139 622 165 622Q195 622 237 624L284 625Q287 625 287 619T284 613Q247 613 229 607T205 587T199 542V81Q199 50 205 36ZM67 678Q63 678 62 682T64 689Q101 707 173 752Q209 774 227 784Q231 787 250 781T284 766T291 756Q229 741 178 723T69 679L67
678Z" />
<glyph unicode="&#xce;" glyph-name="Icircumflex" horiz-adv-x="332" d="M199 50T205 36T228 17T284 12Q287 12 287 6T284 0Q254 0 236 1L165 2L97 1Q79 0 47 0Q44 0 44 6T47 12Q85 12 102 17T126 36T133 81V544Q133 574 127 588T103 607T47 613Q44 613 44 619T47
625L97 624Q139 622 165 622Q195 622 237 624L284 625Q287 625 287 619T284 613Q247 613 229 607T205 587T199 542V81Q199 50 205 36ZM155 790Q160 795 167 795Q173 795 178 790L280 693Q283 692 280 688T275 686L167 743L58 686Q56 685 53 688T52 693L155 790Z"
/>
<glyph unicode="&#xcf;" glyph-name="Idieresis" horiz-adv-x="332" d="M199 50T205 36T228 17T284 12Q287 12 287 6T284 0Q254 0 236 1L165 2L97 1Q79 0 47 0Q44 0 44 6T47 12Q85 12 102 17T126 36T133 81V544Q133 574 127 588T103 607T47 613Q44 613 44 619T47
625L97 624Q139 622 165 622Q195 622 237 624L284 625Q287 625 287 619T284 613Q247 613 229 607T205 587T199 542V81Q199 50 205 36ZM75 716T64 727T52 758Q52 777 63 788T95 799Q114 799 125 788T136 758Q136 738 125 727T95 716Q75 716 64 727ZM218 716T207
727T195 758Q195 777 206 787T238 798Q257 798 268 788T279 758Q279 738 268 727T238 716Q218 716 207 727Z" />
<glyph unicode="&#xd0;" glyph-name="Eth" horiz-adv-x="691" d="M393 627T473 587T598 478T642 323Q642 226 597 152T473 37T303 -4Q273 -4 235 -1Q220 0 200 1T153 2L85 1Q67 0 35 0Q33 0 33 6T35 12Q73 12 91 17T115 36T122 81V301H53Q49 301 49 311Q49 321
53 321H122V544Q122 574 116 588T92 607T36 613Q34 613 34 619T36 625L86 624Q128 622 153 622Q191 622 228 625Q272 627 289 627Q393 627 473 587ZM373 11T434 44T531 143T566 301Q566 388 533 459T440 571T298 612Q254 612 231 607T197 587T186 542V321H322Q324
321 325 318T327 311Q327 307 326 304T322 301H186V92Q186 48 208 30T293 11Q373 11 434 44Z" />
<glyph unicode="&#xd1;" glyph-name="Ntilde" horiz-adv-x="727" d="M707 625T707 619T704 613Q662 613 643 590T624 516V-11Q624 -14 620 -15T613 -14L152 543L144 553V109Q144 57 162 35T221 12Q224 12 224 6T221 0Q196 0 183 1L133 2L82 1Q68 0 41 0Q38 0 38
6T41 12Q84 12 102 34T120 109V577Q99 597 80 605T41 613Q38 613 38 619T41 625L78 624Q89 623 111 623Q133 623 147 624T169 625Q176 625 180 622T192 606Q203 588 215 573L601 101V516Q601 567 584 590T525 613Q523 613 523 619T525 625L564 624Q594 622 613
622Q631 622 663 624L704 625Q707 625 707 619ZM471 742T481 749T503 769H504Q507 769 509 767T511 762Q484 725 468 713T431 700Q413 700 394 705T370 711Q329 724 300 724Q282 724 274 718T251 697H250Q248 697 246 699T244 704Q261 728 283 747T329 767Q346
767 379 756Q384 755 407 749T454 742Q471 742 481 749Z" />
<glyph unicode="&#xd2;" glyph-name="Ograve" horiz-adv-x="766" d="M273 -12T201 31T89 149T49 312Q49 415 101 488T234 599T401 636Q496 636 568 592T678 474T717 319Q717 228 669 152T541 32T366 -12Q273 -12 201 31ZM469 9T523 42T609 139T641 291Q641 384
607 457T508 572T360 613Q249 613 187 542T125 347Q125 253 160 176T258 54T402 9Q469 9 523 42ZM427 704T376 722T262 756Q254 758 268 766T302 780T326 784Q348 770 359 764Q443 712 489 689Q491 687 491 685Q491 682 489 680T484 679Q427 704 376 722Z" />
<glyph unicode="&#xd3;" glyph-name="Oacute" horiz-adv-x="766" d="M273 -12T201 31T89 149T49 312Q49 415 101 488T234 599T401 636Q496 636 568 592T678 474T717 319Q717 228 669 152T541 32T366 -12Q273 -12 201 31ZM469 9T523 42T609 139T641 291Q641 384
607 457T508 572T360 613Q249 613 187 542T125 347Q125 253 160 176T258 54T402 9Q469 9 523 42ZM286 678Q282 678 281 682T283 689Q320 707 392 752Q428 774 446 784Q450 787 469 781T503 766T510 756Q448 741 397 723T288 679L286 678Z" />
<glyph unicode="&#xd4;" glyph-name="Ocircumflex" horiz-adv-x="766" d="M273 -12T201 31T89 149T49 312Q49 415 101 488T234 599T401 636Q496 636 568 592T678 474T717 319Q717 228 669 152T541 32T366 -12Q273 -12 201 31ZM469 9T523 42T609 139T641 291Q641
384 607 457T508 572T360 613Q249 613 187 542T125 347Q125 253 160 176T258 54T402 9Q469 9 523 42ZM374 790Q379 795 386 795Q392 795 397 790L499 693Q502 692 499 688T494 686L386 743L277 686Q275 685 272 688T271 693L374 790Z" />
<glyph unicode="&#xd5;" glyph-name="Otilde" horiz-adv-x="766" d="M273 -12T201 31T89 149T49 312Q49 415 101 488T234 599T401 636Q496 636 568 592T678 474T717 319Q717 228 669 152T541 32T366 -12Q273 -12 201 31ZM469 9T523 42T609 139T641 291Q641 384
607 457T508 572T360 613Q249 613 187 542T125 347Q125 253 160 176T258 54T402 9Q469 9 523 42ZM480 742T490 749T512 769H513Q516 769 518 767T520 762Q493 725 477 713T440 700Q422 700 403 705T379 711Q338 724 309 724Q291 724 283 718T260 697H259Q257 697
255 699T253 704Q270 728 292 747T338 767Q355 767 388 756Q393 755 416 749T463 742Q480 742 490 749Z" />
<glyph unicode="&#xd6;" glyph-name="Odieresis" horiz-adv-x="766" d="M273 -12T201 31T89 149T49 312Q49 415 101 488T234 599T401 636Q496 636 568 592T678 474T717 319Q717 228 669 152T541 32T366 -12Q273 -12 201 31ZM469 9T523 42T609 139T641 291Q641
384 607 457T508 572T360 613Q249 613 187 542T125 347Q125 253 160 176T258 54T402 9Q469 9 523 42ZM278 716T267 727T255 758Q255 777 266 788T298 799Q317 799 328 788T339 758Q339 738 328 727T298 716Q278 716 267 727ZM453 716T442 727T430 758Q430 777 441
787T473 798Q492 798 503 788T514 758Q514 738 503 727T473 716Q453 716 442 727Z" />
<glyph unicode="&#xd7;" glyph-name="multiply" horiz-adv-x="382" d="M322 87Q325 84 311 70T294 59L192 161L89 58Q86 55 72 69T60 86L164 190L61 292Q57 296 71 310T88 321L192 218L294 320Q297 323 311 309T322 292L220 189L322 87Z" />
<glyph unicode="&#xd8;" glyph-name="Oslash" horiz-adv-x="771" d="M669 502T693 442T717 319Q717 228 669 152T541 32T366 -12Q303 -12 249 8T153 67L80 -7L78 -8Q74 -8 69 -2T66 8L138 81Q95 125 72 185T49 312Q49 415 101 488T234 599T401 636Q524 636 610
560L679 630L681 631Q685 631 691 626T694 617L625 546Q669 502 693 442ZM125 221T186 129L568 518Q531 564 478 588T360 613Q249 613 187 542T125 347Q125 221 186 129ZM469 9T523 42T609 139T641 291Q641 414 581 502L197 112Q235 63 287 36T402 9Q469 9 523
42Z" />
<glyph unicode="&#xd9;" glyph-name="Ugrave" horiz-adv-x="698" d="M572 613T485 613Q482 613 482 619T485 625L529 624Q563 622 584 622Q601 622 635 624L676 625Q678 625 678 619T676 613Q596 613 596 516V231Q596 116 532 52T360 -13Q286 -13 231 16T145 98T114
224V544Q114 574 108 588T85 607T29 613Q26 613 26 619T29 625L78 624Q120 622 146 622Q174 622 216 624L264 625Q266 625 266 619T264 613Q227 613 209 607T185 587T179 542V259Q179 142 232 80T382 18Q471 18 521 74T572 230V516Q572 613 485 613ZM416 704T365
722T251 756Q243 758 257 766T291 780T315 784Q337 770 348 764Q432 712 478 689Q480 687 480 685Q480 682 478 680T473 679Q416 704 365 722Z" />
<glyph unicode="&#xda;" glyph-name="Uacute" horiz-adv-x="698" d="M572 613T485 613Q482 613 482 619T485 625L529 624Q563 622 584 622Q601 622 635 624L676 625Q678 625 678 619T676 613Q596 613 596 516V231Q596 116 532 52T360 -13Q286 -13 231 16T145 98T114
224V544Q114 574 108 588T85 607T29 613Q26 613 26 619T29 625L78 624Q120 622 146 622Q174 622 216 624L264 625Q266 625 266 619T264 613Q227 613 209 607T185 587T179 542V259Q179 142 232 80T382 18Q471 18 521 74T572 230V516Q572 613 485 613ZM275 678Q271
678 270 682T272 689Q309 707 381 752Q417 774 435 784Q439 787 458 781T492 766T499 756Q437 741 386 723T277 679L275 678Z" />
<glyph unicode="&#xdb;" glyph-name="Ucircumflex" horiz-adv-x="698" d="M572 613T485 613Q482 613 482 619T485 625L529 624Q563 622 584 622Q601 622 635 624L676 625Q678 625 678 619T676 613Q596 613 596 516V231Q596 116 532 52T360 -13Q286 -13 231 16T145
98T114 224V544Q114 574 108 588T85 607T29 613Q26 613 26 619T29 625L78 624Q120 622 146 622Q174 622 216 624L264 625Q266 625 266 619T264 613Q227 613 209 607T185 587T179 542V259Q179 142 232 80T382 18Q471 18 521 74T572 230V516Q572 613 485 613ZM363
790Q368 795 375 795Q381 795 386 790L488 693Q491 692 488 688T483 686L375 743L266 686Q264 685 261 688T260 693L363 790Z" />
<glyph unicode="&#xdc;" glyph-name="Udieresis" horiz-adv-x="698" d="M572 613T485 613Q482 613 482 619T485 625L529 624Q563 622 584 622Q601 622 635 624L676 625Q678 625 678 619T676 613Q596 613 596 516V231Q596 116 532 52T360 -13Q286 -13 231 16T145
98T114 224V544Q114 574 108 588T85 607T29 613Q26 613 26 619T29 625L78 624Q120 622 146 622Q174 622 216 624L264 625Q266 625 266 619T264 613Q227 613 209 607T185 587T179 542V259Q179 142 232 80T382 18Q471 18 521 74T572 230V516Q572 613 485 613ZM267
716T256 727T244 758Q244 777 255 788T287 799Q306 799 317 788T328 758Q328 738 317 727T287 716Q267 716 256 727ZM442 716T431 727T419 758Q419 777 430 787T462 798Q481 798 492 788T503 758Q503 738 492 727T462 716Q442 716 431 727Z" />
<glyph unicode="&#xdd;" glyph-name="Yacute" horiz-adv-x="609" d="M616 625T616 619T613 613Q578 613 541 587T475 514L341 307V81Q341 50 347 36T370 17T426 12Q429 12 429 6T426 0Q395 0 378 1L308 2L240 1Q222 0 190 0Q187 0 187 6T190 12Q228 12 245 17T269
36T276 81V292L110 535Q82 579 57 596T-1 613Q-3 613 -3 619T-1 625Q11 625 35 623L70 622Q103 622 155 624L210 625Q212 625 212 619T210 613Q158 613 158 592Q158 581 168 568L329 331L450 518Q473 555 473 577Q473 613 419 613Q417 613 417 619T419 625L466
624Q504 622 536 622Q553 622 577 624L613 625Q616 625 616 619ZM218 678Q214 678 213 682T215 689Q252 707 324 752Q360 774 378 784Q382 787 401 781T435 766T442 756Q380 741 329 723T220 679L218 678Z" />
<glyph unicode="&#xde;" glyph-name="Thorn" horiz-adv-x="537" d="M337 147T382 190T427 316Q427 396 382 440T260 485Q226 485 191 477V85Q191 53 199 39T232 18T310 12Q313 12 313 6T310 0Q269 0 246 1L160 2L92 1Q74 0 44 0Q41 0 41 6T44 12Q81 12 98 17T121
36T127 81V544Q127 574 121 588T98 607T44 613Q41 613 41 619T44 625L92 624Q134 622 160 622Q194 622 246 624L310 625Q313 625 313 619T310 613Q257 613 233 607T200 586T191 539V492Q236 499 285 499Q383 499 442 459T501 329Q501 264 468 220T385 155T282 133Q260
133 233 138Q231 138 231 143Q231 146 232 149T236 151Q258 147 272 147Q337 147 382 190Z" />
<glyph unicode="&#xdf;" glyph-name="germandbls" horiz-adv-x="507" d="M304 -11T267 19Q261 24 261 31L259 121Q259 123 264 123T270 122Q288 67 316 38T377 9Q401 9 416 27T432 76Q432 113 411 144T350 215Q307 257 285 290T262 364Q262 393 273 415T307 470Q332
504 344 530T357 594Q357 639 337 675T268 711Q210 711 178 641T146 446V81Q146 51 150 37T168 17T210 12Q213 12 213 6T210 0L118 1L19 0Q17 0 17 6T19 12Q49 12 63 17T83 36T88 81L87 448Q87 580 141 653T293 726Q357 726 387 696T418 628Q418 596 403 571T358
512Q330 481 317 460T303 411Q303 379 324 350T391 275Q437 227 460 194T483 121Q483 88 466 58T418 8T348 -11Q304 -11 267 19Z" />
<glyph unicode="&#xe0;" glyph-name="agrave" horiz-adv-x="419" d="M415 54Q419 54 420 50T418 43L315 -6Q309 -8 306 -8Q293 -8 283 9T270 56L208 23Q177 7 157 0T118 -7Q87 -7 71 9T54 52Q54 79 75 95T149 130L269 172V255Q269 321 252 348T204 375Q170 375
152 351T129 292Q126 275 119 265T92 254Q76 254 67 262T58 284Q58 307 88 333T160 377T237 395Q277 395 301 368T325 285V108Q325 73 334 57T363 40Q380 40 413 54H415ZM269 70V76V160L166 121Q143 113 134 102T124 73Q124 52 136 40T168 28Q184 28 208 39L269
70ZM112 731T121 731Q134 731 153 726T174 716L225 476Q226 474 221 473T215 474L113 727Q112 731 121 731Z" />
<glyph unicode="&#xe1;" glyph-name="aacute" horiz-adv-x="419" d="M415 54Q419 54 420 50T418 43L315 -6Q309 -8 306 -8Q293 -8 283 9T270 56L208 23Q177 7 157 0T118 -7Q87 -7 71 9T54 52Q54 79 75 95T149 130L269 172V255Q269 321 252 348T204 375Q170 375
152 351T129 292Q126 275 119 265T92 254Q76 254 67 262T58 284Q58 307 88 333T160 377T237 395Q277 395 301 368T325 285V108Q325 73 334 57T363 40Q380 40 413 54H415ZM269 70V76V160L166 121Q143 113 134 102T124 73Q124 52 136 40T168 28Q184 28 208 39L269
70ZM207 472T203 472Q200 472 198 473T196 476L248 716Q249 720 268 725T301 731Q310 731 309 727L207 474Q207 472 203 472Z" />
<glyph unicode="&#xe2;" glyph-name="acircumflex" horiz-adv-x="419" d="M415 54Q419 54 420 50T418 43L315 -6Q309 -8 306 -8Q293 -8 283 9T270 56L208 23Q177 7 157 0T118 -7Q87 -7 71 9T54 52Q54 79 75 95T149 130L269 172V255Q269 321 252 348T204 375Q170
375 152 351T129 292Q126 275 119 265T92 254Q76 254 67 262T58 284Q58 307 88 333T160 377T237 395Q277 395 301 368T325 285V108Q325 73 334 57T363 40Q380 40 413 54H415ZM269 70V76V160L166 121Q143 113 134 102T124 73Q124 52 136 40T168 28Q184 28 208 39L269
70ZM290 474T285 473T278 474L210 638L141 474Q141 472 137 472Q134 472 132 473T130 476L198 725Q198 730 209 730Q218 730 221 725L288 476Q290 474 285 473Z" />
<glyph unicode="&#xe3;" glyph-name="atilde" horiz-adv-x="419" d="M415 54Q419 54 420 50T418 43L315 -6Q309 -8 306 -8Q293 -8 283 9T270 56L208 23Q177 7 157 0T118 -7Q87 -7 71 9T54 52Q54 79 75 95T149 130L269 172V255Q269 321 252 348T204 375Q170 375
152 351T129 292Q126 275 119 265T92 254Q76 254 67 262T58 284Q58 307 88 333T160 377T237 395Q277 395 301 368T325 285V108Q325 73 334 57T363 40Q380 40 413 54H415ZM269 70V76V160L166 121Q143 113 134 102T124 73Q124 52 136 40T168 28Q184 28 208 39L269
70ZM303 524T312 530T335 551H336Q339 551 341 549T342 544Q316 507 300 495T263 482Q245 482 226 487T202 493Q161 506 132 506Q114 506 106 500T83 479H82Q79 479 77 481T76 486Q93 510 115 529T161 549Q178 549 211 538Q216 537 239 531T286 524Q303 524 312
530Z" />
<glyph unicode="&#xe4;" glyph-name="adieresis" horiz-adv-x="419" d="M415 54Q419 54 420 50T418 43L315 -6Q309 -8 306 -8Q293 -8 283 9T270 56L208 23Q177 7 157 0T118 -7Q87 -7 71 9T54 52Q54 79 75 95T149 130L269 172V255Q269 321 252 348T204 375Q170
375 152 351T129 292Q126 275 119 265T92 254Q76 254 67 262T58 284Q58 307 88 333T160 377T237 395Q277 395 301 368T325 285V108Q325 73 334 57T363 40Q380 40 413 54H415ZM269 70V76V160L166 121Q143 113 134 102T124 73Q124 52 136 40T168 28Q184 28 208 39L269
70ZM102 477T91 488T79 519Q79 538 90 549T122 560Q141 560 152 549T163 519Q163 499 152 488T122 477Q102 477 91 488ZM277 477T266 488T254 519Q254 538 265 548T297 559Q316 559 327 549T338 519Q338 499 327 488T297 477Q277 477 266 488Z" />
<glyph unicode="&#xe5;" glyph-name="aring" horiz-adv-x="419" d="M415 54Q419 54 420 50T418 43L315 -6Q309 -8 306 -8Q293 -8 283 9T270 56L208 23Q177 7 157 0T118 -7Q87 -7 71 9T54 52Q54 79 75 95T149 130L269 172V255Q269 321 252 348T204 375Q170 375
152 351T129 292Q126 275 119 265T92 254Q76 254 67 262T58 284Q58 307 88 333T160 377T237 395Q277 395 301 368T325 285V108Q325 73 334 57T363 40Q380 40 413 54H415ZM269 70V76V160L166 121Q143 113 134 102T124 73Q124 52 136 40T168 28Q184 28 208 39L269
70ZM160 468T137 491T113 547Q113 583 143 604T210 625Q246 625 272 602T298 545Q298 510 268 489T200 468Q160 468 137 491ZM235 478T243 489T252 527Q252 563 234 588T190 614Q173 614 165 603T157 567Q157 533 173 506T216 478Q235 478 243 489Z" />
<glyph unicode="&#xe6;" glyph-name="ae" horiz-adv-x="589" d="M554 57Q557 57 559 53T559 47Q526 15 493 2T420 -12Q321 -12 282 62L201 21Q170 5 152 -1T114 -7Q83 -7 65 9T47 53Q47 79 67 93T142 127L257 166V170Q254 255 250 295T230 356T183 378Q150 378
135 355T116 291Q113 255 81 255Q64 255 56 263T47 286Q47 308 72 334T134 377T205 395Q239 395 265 377T302 326Q330 359 368 377T451 395Q501 395 527 369T554 294Q554 282 552 277T542 272L321 271Q316 243 316 215Q318 135 345 78T451 21Q511 21 552 56L554
57ZM383 375T359 352T324 285L485 289Q484 331 466 353T418 375Q383 375 359 352ZM277 72Q263 105 258 154L159 118Q136 110 127 101T118 75Q118 54 130 42T162 29Q186 29 201 36L277 72Z" />
<glyph unicode="&#xe7;" glyph-name="ccedilla" horiz-adv-x="411" d="M374 56Q377 56 379 53T379 48Q344 16 309 2T231 -12H225Q214 -45 214 -58Q214 -71 222 -78T257 -102Q283 -117 297 -134T312 -179Q312 -216 286 -245T208 -275Q180 -275 162 -265T144 -236Q144
-224 153 -216T174 -207Q185 -207 191 -212T203 -229Q210 -242 217 -248T240 -255Q255 -255 264 -246T273 -218Q273 -192 255 -171T188 -124Q174 -117 174 -111Q174 -107 179 -94Q192 -61 210 -11Q152 -6 113 23T55 95T36 185Q36 249 68 296T151 369T255 395Q301
395 336 378T371 334Q371 321 362 312T336 302Q310 302 292 334Q280 355 265 365T221 375Q165 375 134 332T102 215Q102 132 144 78T271 23Q331 23 372 56H374Z" />
<glyph unicode="&#xe8;" glyph-name="egrave" horiz-adv-x="407" d="M364 57Q367 57 369 53T370 47Q335 16 300 2T224 -12Q165 -12 123 14T58 85T36 180Q36 239 64 288T142 366T251 395Q305 395 335 369T365 296Q365 284 363 278T353 272L107 271Q102 244 102
219Q102 132 144 78T259 23Q315 23 363 56L364 57ZM176 375T149 352T110 285L296 289Q295 330 274 352T217 375Q176 375 149 352ZM130 731T139 731Q152 731 171 726T192 716L243 476Q244 474 239 473T233 474L131 727Q130 731 139 731Z" />
<glyph unicode="&#xe9;" glyph-name="eacute" horiz-adv-x="407" d="M364 57Q367 57 369 53T370 47Q335 16 300 2T224 -12Q165 -12 123 14T58 85T36 180Q36 239 64 288T142 366T251 395Q305 395 335 369T365 296Q365 284 363 278T353 272L107 271Q102 244 102
219Q102 132 144 78T259 23Q315 23 363 56L364 57ZM176 375T149 352T110 285L296 289Q295 330 274 352T217 375Q176 375 149 352ZM225 472T221 472Q218 472 216 473T214 476L266 716Q267 720 286 725T319 731Q328 731 327 727L225 474Q225 472 221 472Z" />
<glyph unicode="&#xea;" glyph-name="ecircumflex" horiz-adv-x="407" d="M364 57Q367 57 369 53T370 47Q335 16 300 2T224 -12Q165 -12 123 14T58 85T36 180Q36 239 64 288T142 366T251 395Q305 395 335 369T365 296Q365 284 363 278T353 272L107 271Q102 244
102 219Q102 132 144 78T259 23Q315 23 363 56L364 57ZM176 375T149 352T110 285L296 289Q295 330 274 352T217 375Q176 375 149 352ZM308 474T303 473T296 474L228 638L159 474Q159 472 155 472Q152 472 150 473T148 476L216 725Q217 730 227 730Q238 730 239
725L306 476Q308 474 303 473Z" />
<glyph unicode="&#xeb;" glyph-name="edieresis" horiz-adv-x="407" d="M364 57Q367 57 369 53T370 47Q335 16 300 2T224 -12Q165 -12 123 14T58 85T36 180Q36 239 64 288T142 366T251 395Q305 395 335 369T365 296Q365 284 363 278T353 272L107 271Q102 244 102
219Q102 132 144 78T259 23Q315 23 363 56L364 57ZM176 375T149 352T110 285L296 289Q295 330 274 352T217 375Q176 375 149 352ZM120 477T109 488T97 519Q97 538 108 549T140 560Q159 560 170 549T181 519Q181 499 170 488T140 477Q120 477 109 488ZM295 477T284
488T272 519Q272 538 283 548T315 559Q334 559 345 549T356 519Q356 499 345 488T315 477Q295 477 284 488Z" />
<glyph unicode="&#xec;" glyph-name="igrave" horiz-adv-x="272" d="M51 0T51 6T53 12Q80 12 93 17T112 37T117 81V268Q117 304 110 320T84 336Q66 336 39 322H37Q33 322 32 327T34 334L163 394Q165 396 167 396Q170 396 172 393T175 387Q175 380 174 347T173
269V81Q173 51 178 37T196 18T236 12Q239 12 239 6T236 0Q213 0 199 1L145 2L91 1Q77 0 53 0Q51 0 51 6ZM296 731T305 731Q318 731 337 726T358 716L409 476Q410 474 405 473T399 474L297 727Q296 731 305 731Z" />
<glyph unicode="&#xed;" glyph-name="iacute" horiz-adv-x="272" d="M51 0T51 6T53 12Q80 12 93 17T112 37T117 81V268Q117 304 110 320T84 336Q66 336 39 322H37Q33 322 32 327T34 334L163 394Q165 396 167 396Q170 396 172 393T175 387Q175 380 174 347T173
269V81Q173 51 178 37T196 18T236 12Q239 12 239 6T236 0Q213 0 199 1L145 2L91 1Q77 0 53 0Q51 0 51 6ZM135 472T131 472Q128 472 126 473T124 476L176 716Q177 720 196 725T229 731Q238 731 237 727L135 474Q135 472 131 472Z" />
<glyph unicode="&#xee;" glyph-name="icircumflex" horiz-adv-x="272" d="M51 0T51 6T53 12Q80 12 93 17T112 37T117 81V268Q117 304 110 320T84 336Q66 336 39 322H37Q33 322 32 327T34 334L163 394Q165 396 167 396Q170 396 172 393T175 387Q175 380 174 347T173
269V81Q173 51 178 37T196 18T236 12Q239 12 239 6T236 0Q213 0 199 1L145 2L91 1Q77 0 53 0Q51 0 51 6ZM218 474T213 473T206 474L138 638L69 474Q69 472 65 472Q62 472 60 473T58 476L126 725Q127 730 137 730Q148 730 149 725L216 476Q218 474 213 473Z" />
<glyph unicode="&#xef;" glyph-name="idieresis" horiz-adv-x="272" d="M51 0T51 6T53 12Q80 12 93 17T112 37T117 81V268Q117 304 110 320T84 336Q66 336 39 322H37Q33 322 32 327T34 334L163 394Q165 396 167 396Q170 396 172 393T175 387Q175 380 174 347T173
269V81Q173 51 178 37T196 18T236 12Q239 12 239 6T236 0Q213 0 199 1L145 2L91 1Q77 0 53 0Q51 0 51 6ZM302 477T291 488T279 519Q279 538 290 549T322 560Q341 560 352 549T363 519Q363 499 352 488T322 477Q302 477 291 488ZM445 477T434 488T422 519Q422 538
433 548T465 559Q484 559 495 549T506 519Q506 499 495 488T465 477Q445 477 434 488Z" />
<glyph unicode="&#xf0;" glyph-name="eth" horiz-adv-x="470" d="M368 494T403 405T438 227Q438 107 377 47T223 -13Q166 -13 123 14T56 86T33 186Q33 255 64 303T144 375T240 399Q299 399 345 366Q314 466 259 548L125 484Q121 482 118 492T118 505L246 566Q177
661 90 716Q88 718 88 719Q88 721 90 723T96 725Q202 677 288 586L391 635H392Q397 635 400 626T399 614L303 569Q368 494 403 405ZM309 6T340 48T371 191Q371 242 361 300Q340 338 306 359T229 380Q173 380 136 336T98 215Q98 158 117 111T171 35T251 6Q309 6
340 48Z" />
<glyph unicode="&#xf1;" glyph-name="ntilde" horiz-adv-x="517" d="M498 12T498 6T496 0Q472 0 458 1L404 2L351 1Q337 0 313 0Q311 0 311 6T313 12Q340 12 353 17T371 37T376 81V243Q376 302 354 330T284 358Q253 358 222 342T164 296V81Q164 51 169 37T187
18T227 12Q229 12 229 6T227 0Q203 0 189 1L135 2L82 1Q68 0 44 0Q42 0 42 6T44 12Q71 12 84 17T102 37T107 81V278Q107 312 99 327T72 343Q56 343 18 328L16 327Q12 327 11 332T13 338L129 394Q135 396 135 396Q144 396 154 373T164 314Q202 357 239 378T318 399Q373
399 403 368T433 277V81Q433 51 438 37T456 18T496 12Q498 12 498 6ZM365 524T374 530T397 551H398Q401 551 403 549T404 544Q378 507 362 495T325 482Q307 482 288 487T264 493Q223 506 194 506Q176 506 168 500T145 479H144Q141 479 139 481T138 486Q155 510
177 529T223 549Q240 549 273 538Q278 537 301 531T348 524Q365 524 374 530Z" />
<glyph unicode="&#xf2;" glyph-name="ograve" horiz-adv-x="480" d="M174 -13T130 15T61 92T36 198Q36 263 67 308T148 376T249 399Q308 399 352 370T419 294T443 193Q443 131 415 85T338 13T232 -13Q174 -13 130 15ZM314 5T344 44T375 165Q375 227 355 276T298
352T216 380Q162 380 133 341T103 229Q103 168 123 117T179 35T260 5Q314 5 344 44ZM143 731T152 731Q165 731 184 726T205 716L256 476Q257 474 252 473T246 474L144 727Q143 731 152 731Z" />
<glyph unicode="&#xf3;" glyph-name="oacute" horiz-adv-x="480" d="M174 -13T130 15T61 92T36 198Q36 263 67 308T148 376T249 399Q308 399 352 370T419 294T443 193Q443 131 415 85T338 13T232 -13Q174 -13 130 15ZM314 5T344 44T375 165Q375 227 355 276T298
352T216 380Q162 380 133 341T103 229Q103 168 123 117T179 35T260 5Q314 5 344 44ZM238 472T234 472Q231 472 229 473T227 476L279 716Q280 720 299 725T332 731Q341 731 340 727L238 474Q238 472 234 472Z" />
<glyph unicode="&#xf4;" glyph-name="ocircumflex" horiz-adv-x="480" d="M174 -13T130 15T61 92T36 198Q36 263 67 308T148 376T249 399Q308 399 352 370T419 294T443 193Q443 131 415 85T338 13T232 -13Q174 -13 130 15ZM314 5T344 44T375 165Q375 227 355 276T298
352T216 380Q162 380 133 341T103 229Q103 168 123 117T179 35T260 5Q314 5 344 44ZM321 474T316 473T309 474L241 638L172 474Q172 472 168 472Q165 472 163 473T161 476L229 725Q230 730 240 730Q251 730 252 725L319 476Q321 474 316 473Z" />
<glyph unicode="&#xf5;" glyph-name="otilde" horiz-adv-x="480" d="M174 -13T130 15T61 92T36 198Q36 263 67 308T148 376T249 399Q308 399 352 370T419 294T443 193Q443 131 415 85T338 13T232 -13Q174 -13 130 15ZM314 5T344 44T375 165Q375 227 355 276T298
352T216 380Q162 380 133 341T103 229Q103 168 123 117T179 35T260 5Q314 5 344 44ZM334 524T343 530T366 551H367Q370 551 372 549T373 544Q347 507 331 495T294 482Q276 482 257 487T233 493Q192 506 163 506Q145 506 137 500T114 479H113Q110 479 108 481T107
486Q124 510 146 529T192 549Q209 549 242 538Q247 537 270 531T317 524Q334 524 343 530Z" />
<glyph unicode="&#xf6;" glyph-name="odieresis" horiz-adv-x="480" d="M174 -13T130 15T61 92T36 198Q36 263 67 308T148 376T249 399Q308 399 352 370T419 294T443 193Q443 131 415 85T338 13T232 -13Q174 -13 130 15ZM314 5T344 44T375 165Q375 227 355 276T298
352T216 380Q162 380 133 341T103 229Q103 168 123 117T179 35T260 5Q314 5 344 44ZM133 477T122 488T110 519Q110 538 121 549T153 560Q172 560 183 549T194 519Q194 499 183 488T153 477Q133 477 122 488ZM308 477T297 488T285 519Q285 538 296 548T328 559Q347
559 358 549T369 519Q369 499 358 488T328 477Q308 477 297 488Z" />
<glyph unicode="&#xf7;" glyph-name="divide" horiz-adv-x="398" d="M178 311T166 322T154 354Q154 373 166 384T198 396Q218 396 229 385T241 354Q241 334 230 323T198 311Q178 311 166 322ZM32 170T31 176T29 191Q29 198 30 203T33 209H364Q366 209 367 203T369
190Q369 183 368 177T364 170H34Q32 170 31 176ZM178 -11T166 0T154 33Q154 52 166 63T198 74Q218 74 229 63T241 33Q241 12 230 1T198 -11Q178 -11 166 0Z" />
<glyph unicode="&#xf8;" glyph-name="oslash" horiz-adv-x="477" d="M416 308T429 271T443 193Q443 131 415 85T338 13T232 -13Q155 -13 102 37L51 -15H50Q45 -15 39 -9T36 1L87 53Q62 81 49 119T36 198Q36 263 67 308T148 376T249 399Q323 399 376 351L422 398L424
399Q429 399 434 394T438 385L391 336Q416 308 429 271ZM103 155T131 99L337 310Q315 344 284 362T216 380Q162 380 133 341T103 229Q103 155 131 99ZM314 5T344 44T375 165Q375 238 347 291L142 79Q164 44 194 25T260 5Q314 5 344 44Z" />
<glyph unicode="&#xf9;" glyph-name="ugrave" horiz-adv-x="493" d="M487 57Q491 57 492 53T490 46L374 -9L369 -10Q360 -10 351 13T341 73V77Q265 -8 183 -8Q132 -8 104 23T76 114V268Q76 307 69 324T46 342Q32 342 12 332H11Q7 332 5 337T7 344L118 394L122
395Q125 395 128 393T132 387V148Q132 32 216 32Q248 32 281 48T341 94V268Q341 308 335 325T312 342Q298 342 277 332H276Q272 332 271 337T273 344L384 394L388 395Q391 395 394 393T397 387V107Q397 73 405 58T432 43Q449 43 485 57H487ZM141 731T150 731Q163
731 182 726T203 716L254 476Q255 474 250 473T244 474L142 727Q141 731 150 731Z" />
<glyph unicode="&#xfa;" glyph-name="uacute" horiz-adv-x="493" d="M487 57Q491 57 492 53T490 46L374 -9L369 -10Q360 -10 351 13T341 73V77Q265 -8 183 -8Q132 -8 104 23T76 114V268Q76 307 69 324T46 342Q32 342 12 332H11Q7 332 5 337T7 344L118 394L122
395Q125 395 128 393T132 387V148Q132 32 216 32Q248 32 281 48T341 94V268Q341 308 335 325T312 342Q298 342 277 332H276Q272 332 271 337T273 344L384 394L388 395Q391 395 394 393T397 387V107Q397 73 405 58T432 43Q449 43 485 57H487ZM236 472T232 472Q229
472 227 473T225 476L277 716Q278 720 297 725T330 731Q339 731 338 727L236 474Q236 472 232 472Z" />
<glyph unicode="&#xfb;" glyph-name="ucircumflex" horiz-adv-x="493" d="M487 57Q491 57 492 53T490 46L374 -9L369 -10Q360 -10 351 13T341 73V77Q265 -8 183 -8Q132 -8 104 23T76 114V268Q76 307 69 324T46 342Q32 342 12 332H11Q7 332 5 337T7 344L118 394L122
395Q125 395 128 393T132 387V148Q132 32 216 32Q248 32 281 48T341 94V268Q341 308 335 325T312 342Q298 342 277 332H276Q272 332 271 337T273 344L384 394L388 395Q391 395 394 393T397 387V107Q397 73 405 58T432 43Q449 43 485 57H487ZM319 474T314 473T307
474L239 638L170 474Q170 472 166 472Q163 472 161 473T159 476L227 725Q228 730 238 730Q249 730 250 725L317 476Q319 474 314 473Z" />
<glyph unicode="&#xfc;" glyph-name="udieresis" horiz-adv-x="493" d="M487 57Q491 57 492 53T490 46L374 -9L369 -10Q360 -10 351 13T341 73V77Q265 -8 183 -8Q132 -8 104 23T76 114V268Q76 307 69 324T46 342Q32 342 12 332H11Q7 332 5 337T7 344L118 394L122
395Q125 395 128 393T132 387V148Q132 32 216 32Q248 32 281 48T341 94V268Q341 308 335 325T312 342Q298 342 277 332H276Q272 332 271 337T273 344L384 394L388 395Q391 395 394 393T397 387V107Q397 73 405 58T432 43Q449 43 485 57H487ZM131 477T120 488T108
519Q108 538 119 549T151 560Q170 560 181 549T192 519Q192 499 181 488T151 477Q131 477 120 488ZM306 477T295 488T283 519Q283 538 294 548T326 559Q345 559 356 549T367 519Q367 499 356 488T326 477Q306 477 295 488Z" />
<glyph unicode="&#xfd;" glyph-name="yacute" horiz-adv-x="435" d="M434 386T434 380T432 374Q405 374 388 357T354 297L232 -28Q195 -125 163 -179T96 -257T16 -281Q-6 -281 -20 -271T-35 -242Q-35 -228 -26 -220T-4 -212Q9 -212 18 -215T37 -225Q39 -226 48
-231T72 -236Q96 -236 117 -215T163 -145T221 -7L69 303Q47 347 35 360T3 374Q1 374 1 380T3 386L37 385Q49 384 70 384L134 385Q148 386 173 386Q176 386 176 380T173 374Q145 374 130 369T115 351Q115 343 119 335L252 63L332 294Q340 318 340 332Q340 355 322
364T263 374Q261 374 261 380T263 386Q290 386 304 385L364 384L400 385Q410 386 432 386Q434 386 434 380ZM223 472T219 472Q216 472 214 473T212 476L264 716Q265 720 284 725T317 731Q326 731 325 727L223 474Q223 472 219 472Z" />
<glyph unicode="&#xfe;" glyph-name="thorn" horiz-adv-x="491" d="M343 399T378 377T434 313T455 215Q455 140 421 89T338 12T240 -13Q207 -13 183 -8T134 13V-194Q134 -224 141 -238T169 -257T234 -263Q236 -263 236 -269T234 -275Q199 -275 179 -274L106 -273L52
-274Q38 -275 14 -275Q11 -275 11 -269T14 -263Q41 -263 54 -258T72 -238T77 -194V598Q77 634 70 650T45 666Q30 666 0 652H-2Q-6 652 -7 656T-6 663L120 724Q122 725 125 725Q128 725 131 723T134 717V313Q217 399 302 399Q343 399 378 377ZM322 8T356 55T391
184Q391 267 354 314T259 361Q224 361 195 344T134 296V71Q161 40 192 24T269 8Q322 8 356 55Z" />
<glyph unicode="&#xff;" glyph-name="ydieresis" horiz-adv-x="435" d="M434 386T434 380T432 374Q405 374 388 357T354 297L232 -28Q195 -125 163 -179T96 -257T16 -281Q-6 -281 -20 -271T-35 -242Q-35 -228 -26 -220T-4 -212Q9 -212 18 -215T37 -225Q39 -226
48 -231T72 -236Q96 -236 117 -215T163 -145T221 -7L69 303Q47 347 35 360T3 374Q1 374 1 380T3 386L37 385Q49 384 70 384L134 385Q148 386 173 386Q176 386 176 380T173 374Q145 374 130 369T115 351Q115 343 119 335L252 63L332 294Q340 318 340 332Q340 355
322 364T263 374Q261 374 261 380T263 386Q290 386 304 385L364 384L400 385Q410 386 432 386Q434 386 434 380ZM118 477T107 488T95 519Q95 538 106 549T138 560Q157 560 168 549T179 519Q179 499 168 488T138 477Q118 477 107 488ZM293 477T282 488T270 519Q270
538 281 548T313 559Q332 559 343 549T354 519Q354 499 343 488T313 477Q293 477 282 488Z" />
<glyph unicode="&#x2013;" glyph-name="endash" horiz-adv-x="515" d="M32 170T31 176T29 191Q29 198 30 203T33 209H481Q483 209 484 203T486 190Q486 183 485 177T481 170H34Q32 170 31 176Z" />
<glyph unicode="&#x2014;" glyph-name="emdash" horiz-adv-x="830" d="M32 170T31 176T29 191Q29 198 30 203T33 209H796Q798 209 799 203T801 190Q801 183 800 177T796 170H34Q32 170 31 176Z" />
<glyph unicode="&#x2018;" glyph-name="quoteleft" horiz-adv-x="168" d="M112 486T122 476T133 447Q133 407 87 407Q57 407 40 429T23 494Q23 534 41 568T94 637Q95 638 97 638Q100 638 102 635T102 630Q53 580 53 512Q53 484 63 471Q72 486 94 486Q112 486 122 476Z" />
<glyph unicode="&#x2019;" glyph-name="quoteright" horiz-adv-x="157" d="M99 633T116 611T133 546Q133 506 115 472T62 403Q61 402 59 402Q56 402 54 405T54 410Q103 460 103 528Q103 556 93 569Q84 554 62 554Q44 554 34 564T23 593Q23 633 69 633Q99 633 116 611Z" />
<glyph unicode="&#x201a;" glyph-name="quotesinglbase" horiz-adv-x="157" d="M355 71T372 49T389 -16Q389 -56 371 -90T318 -159Q317 -160 315 -160Q312 -160 310 -157T310 -152Q359 -102 359 -34Q359 -6 349 7Q340 -8 318 -8Q300 -8 290 2T279 31Q279 71 325
71Q355 71 372 49Z" />
<glyph unicode="&#x201c;" glyph-name="quotedblleft" horiz-adv-x="304" d="M113 486T123 476T134 447Q134 407 88 407Q58 407 41 429T24 494Q24 534 42 568T95 637Q96 638 98 638Q101 638 103 635T103 630Q54 580 54 512Q54 484 64 471Q73 486 95 486Q113 486
123 476ZM260 486T270 476T281 447Q281 407 235 407Q205 407 188 429T171 494Q171 534 189 568T242 637Q243 638 245 638Q248 638 250 635T250 630Q201 580 201 512Q201 484 211 471Q220 486 242 486Q260 486 270 476Z" />
<glyph unicode="&#x201d;" glyph-name="quotedblright" horiz-adv-x="304" d="M246 633T263 611T280 546Q280 506 262 472T209 403Q208 402 206 402Q203 402 201 405T201 410Q250 460 250 528Q250 556 240 569Q231 554 209 554Q191 554 181 564T170 593Q170 633
216 633Q246 633 263 611ZM99 633T116 611T133 546Q133 506 115 472T62 403Q61 402 59 402Q56 402 54 405T54 410Q103 460 103 528Q103 556 93 569Q84 554 62 554Q44 554 34 564T23 593Q23 633 69 633Q99 633 116 611Z" />
<glyph unicode="&#x201e;" glyph-name="quotedblbase" horiz-adv-x="306" d="M246 71T263 49T280 -16Q280 -56 262 -90T209 -159Q208 -160 206 -160Q203 -160 201 -157T201 -152Q250 -102 250 -34Q250 -6 240 7Q231 -8 209 -8Q191 -8 181 2T170 31Q170 71 216
71Q246 71 263 49ZM355 71T372 49T389 -16Q389 -56 371 -90T318 -159Q317 -160 315 -160Q312 -160 310 -157T310 -152Q359 -102 359 -34Q359 -6 349 7Q340 -8 318 -8Q300 -8 290 2T279 31Q279 71 325 71Q355 71 372 49Z" />
<glyph unicode="&#x2022;" glyph-name="bullet" horiz-adv-x="305" d="M113 151T85 179T56 248Q56 288 84 316T153 344Q193 344 221 316T250 248Q250 208 222 180T153 151Q113 151 85 179Z" />
<glyph unicode="&#x2039;" glyph-name="guilsinglleft" horiz-adv-x="304" d="M59 189Q55 193 55 201Q55 208 59 212L236 361Q238 364 241 361T243 356L121 201L243 46V45Q243 42 241 40T236 40L59 189Z" />
<glyph unicode="&#x203a;" glyph-name="guilsinglright" horiz-adv-x="304" d="M245 212Q250 207 250 201Q250 194 245 189L68 40Q67 39 65 39Q63 39 62 41T61 46L183 200L61 356Q60 358 63 361T68 361L245 212Z" />
</font>
</defs>
</svg>
